<?xml version="1.0" encoding="UTF-8" standalone="no"?>
<svg
   width="375pt"
   height="374.999991pt"
   viewBox="0 0 375 374.999991"
   version="1.2"
   id="svg1082"
   sodipodi:docname="arcadiaicon.svg"
   inkscape:version="1.1 (c4e8f9e, 2021-05-24)"
   xmlns:inkscape="http://www.inkscape.org/namespaces/inkscape"
   xmlns:sodipodi="http://sodipodi.sourceforge.net/DTD/sodipodi-0.dtd"
   xmlns="http://www.w3.org/2000/svg"
   xmlns:svg="http://www.w3.org/2000/svg">
  <sodipodi:namedview
     id="namedview1084"
     pagecolor="#505050"
     bordercolor="#ffffff"
     borderopacity="1"
     inkscape:pageshadow="0"
     inkscape:pageopacity="0"
     inkscape:pagecheckerboard="1"
     inkscape:document-units="pt"
     showgrid="false"
     inkscape:zoom="1.186"
     inkscape:cx="250"
     inkscape:cy="250"
     inkscape:window-width="1440"
     inkscape:window-height="815"
     inkscape:window-x="0"
     inkscape:window-y="25"
     inkscape:window-maximized="1"
     inkscape:current-layer="surface1" />
  <defs
     id="defs845">
    <clipPath
       id="clip1">
      <path
         d="M 285 310 L 306 310 L 306 330.117188 L 285 330.117188 Z M 285 310 "
         id="path824" />
    </clipPath>
    <clipPath
       id="clip2">
      <path
         d="M 68 45.117188 L 136 45.117188 L 136 127 L 68 127 Z M 68 45.117188 "
         id="path827" />
    </clipPath>
    <clipPath
       id="clip3">
      <path
         d="M 266 182 L 311.128906 182 L 311.128906 185 L 266 185 Z M 266 182 "
         id="path830" />
    </clipPath>
    <clipPath
       id="clip4">
      <path
         d="M 63.628906 182 L 108 182 L 108 185 L 63.628906 185 Z M 63.628906 182 "
         id="path833" />
    </clipPath>
    <clipPath
       id="clip5">
      <path
         d="M 68 310 L 90 310 L 90 330.117188 L 68 330.117188 Z M 68 310 "
         id="path836" />
    </clipPath>
    <clipPath
       id="clip6">
      <path
         d="M 238 45.117188 L 306 45.117188 L 306 127 L 238 127 Z M 238 45.117188 "
         id="path839" />
    </clipPath>
    <clipPath
       id="clip7">
      <path
         d="M 118.621094 57.179688 L 250.621094 57.179688 L 250.621094 330.179688 L 118.621094 330.179688 Z M 118.621094 57.179688 "
         id="path842" />
    </clipPath>
  </defs>
  <g
     id="surface1">
    <g
       clip-path="url(#clip1)"
       clip-rule="nonzero"
       id="g855">
      <path
         style=" stroke:none;fill-rule:nonzero;fill:rgb(32.939148%,32.939148%,32.939148%);fill-opacity:1;"
         d="M 296.832031 325.765625 C 296.089844 326.371094 294.988281 326.265625 294.378906 325.519531 L 289.960938 320.128906 C 289.355469 319.382812 289.464844 318.28125 290.203125 317.671875 C 290.945312 317.0625 292.046875 317.171875 292.65625 317.914062 L 297.070312 323.308594 C 297.679688 324.050781 297.570312 325.15625 296.832031 325.765625 Z M 285.277344 319.367188 L 294.113281 330.15625 L 305.421875 320.863281 L 296.585938 310.074219 L 285.277344 319.367188 "
         id="path853" />
    </g>
    <path
       style=" stroke:none;fill-rule:nonzero;fill:rgb(32.939148%,32.939148%,32.939148%);fill-opacity:1;"
       d="M 277.328125 309.65625 L 280.863281 313.972656 L 292.171875 304.679688 L 288.636719 300.363281 L 277.328125 309.65625 "
       id="path857" />
    <path
       style=" stroke:none;fill-rule:nonzero;fill:rgb(32.939148%,32.939148%,32.939148%);fill-opacity:1;"
       d="M 135.542969 136.472656 L 272.910156 304.261719 L 284.222656 294.96875 L 146.855469 127.179688 L 135.542969 136.472656 "
       id="path859" />
    <path
       style="stroke:none;fill-rule:nonzero;fill:#808080;fill-opacity:1"
       d="M 274.4375 296.03125 C 275.003906 296.722656 274.902344 297.753906 274.210938 298.320312 C 273.523438 298.890625 272.492188 298.785156 271.925781 298.09375 L 144.710938 142.707031 C 144.144531 142.011719 144.246094 140.980469 144.933594 140.414062 C 145.628906 139.847656 146.65625 139.949219 147.222656 140.644531 L 274.4375 296.03125 "
       id="path861" />
    <path
       style=" stroke:none;fill-rule:nonzero;fill:rgb(32.939148%,32.939148%,32.939148%);fill-opacity:1;"
       d="M 151.949219 125.699219 C 150.492188 123.921875 147.84375 123.660156 146.066406 125.117188 L 133.144531 135.738281 C 131.363281 137.199219 131.101562 139.851562 132.5625 141.628906 C 134.019531 143.410156 136.664062 143.671875 138.441406 142.210938 L 151.367188 131.59375 C 153.144531 130.132812 153.40625 127.480469 151.949219 125.699219 "
       id="path863" />
    <path
       style=" stroke:none;fill-rule:nonzero;fill:rgb(32.939148%,32.939148%,32.939148%);fill-opacity:1;"
       d="M 147.53125 120.304688 C 146.074219 118.523438 143.425781 118.261719 141.648438 119.722656 L 128.722656 130.339844 C 126.949219 131.800781 126.6875 134.453125 128.140625 136.234375 C 129.601562 138.015625 132.246094 138.277344 134.023438 136.816406 L 146.949219 126.199219 C 148.726562 124.738281 148.988281 122.085938 147.53125 120.304688 "
       id="path865" />
    <path
       style=" stroke:none;fill-rule:nonzero;fill:rgb(32.939148%,32.939148%,32.939148%);fill-opacity:1;"
       d="M 143.113281 114.910156 C 141.65625 113.128906 139.007812 112.867188 137.234375 114.328125 L 124.308594 124.949219 C 122.53125 126.40625 122.269531 129.058594 123.726562 130.839844 C 125.183594 132.621094 127.832031 132.882812 129.609375 131.421875 L 142.535156 120.800781 C 144.308594 119.339844 144.570312 116.691406 143.113281 114.910156 "
       id="path867" />
    <path
       style=" stroke:none;fill-rule:nonzero;fill:rgb(32.939148%,32.939148%,32.939148%);fill-opacity:1;"
       d="M 132.816406 108.933594 L 119.890625 119.554688 C 118.113281 121.011719 117.851562 123.664062 119.308594 125.445312 C 120.769531 127.226562 123.414062 127.488281 125.191406 126.027344 L 138.117188 115.40625 C 139.894531 113.945312 140.15625 111.296875 138.695312 109.515625 C 137.242188 107.734375 134.59375 107.472656 132.816406 108.933594 "
       id="path869" />
    <path
       style=" stroke:none;fill-rule:nonzero;fill:rgb(32.939148%,32.939148%,32.939148%);fill-opacity:1;"
       d="M 132.753906 107.390625 C 131.398438 105.738281 128.945312 105.492188 127.296875 106.847656 L 118.683594 113.929688 C 117.03125 115.28125 116.789062 117.742188 118.140625 119.394531 L 120.292969 122.023438 C 121.644531 123.671875 124.101562 123.914062 125.746094 122.5625 L 134.367188 115.480469 C 136.011719 114.125 136.253906 111.667969 134.902344 110.015625 L 132.753906 107.390625 "
       id="path871" />
    <g
       clip-path="url(#clip2)"
       clip-rule="nonzero"
       id="g875">
      <path
         style=" stroke:none;fill-rule:nonzero;fill:rgb(32.939148%,32.939148%,32.939148%);fill-opacity:1;"
         d="M 102.9375 105.132812 L 75.691406 53.511719 L 120.847656 108.667969 C 120.847656 108.667969 108.757812 100.75 102.9375 105.132812 Z M 128.285156 91.296875 L 68.882812 45.144531 L 102.4375 112.535156 C 118.1875 108.386719 135.78125 126.859375 135.78125 126.859375 C 135.78125 126.859375 121.140625 105.960938 128.285156 91.296875 "
         id="path873" />
    </g>
    <path
       style=" stroke:none;fill-rule:nonzero;fill:rgb(32.939148%,32.939148%,32.939148%);fill-opacity:1;"
       d="M 178.96875 79.171875 L 179.066406 100.347656 L 180.46875 100.339844 L 180.371094 79.167969 L 178.96875 79.171875 "
       id="path877" />
    <path
       style=" stroke:none;fill-rule:nonzero;fill:rgb(32.939148%,32.939148%,32.939148%);fill-opacity:1;"
       d="M 182.078125 68.34375 L 182.222656 100.332031 L 183.628906 100.324219 L 183.484375 68.335938 L 182.078125 68.34375 "
       id="path879" />
    <path
       style=" stroke:none;fill-rule:nonzero;fill:rgb(32.939148%,32.939148%,32.939148%);fill-opacity:1;"
       d="M 185.207031 61.335938 L 185.382812 100.320312 L 186.789062 100.3125 L 186.613281 61.332031 L 185.207031 61.335938 "
       id="path881" />
    <path
       style=" stroke:none;fill-rule:nonzero;fill:rgb(32.939148%,32.939148%,32.939148%);fill-opacity:1;"
       d="M 188.34375 55.914062 L 188.542969 100.304688 L 189.945312 100.296875 L 189.746094 55.910156 L 188.34375 55.914062 "
       id="path883" />
    <path
       style=" stroke:none;fill-rule:nonzero;fill:rgb(32.939148%,32.939148%,32.939148%);fill-opacity:1;"
       d="M 191.53125 61.308594 L 191.703125 100.289062 L 193.105469 100.285156 L 192.933594 61.300781 L 191.53125 61.308594 "
       id="path885" />
    <path
       style=" stroke:none;fill-rule:nonzero;fill:rgb(32.939148%,32.939148%,32.939148%);fill-opacity:1;"
       d="M 194.71875 68.285156 L 194.863281 100.277344 L 196.265625 100.269531 L 196.125 68.28125 L 194.71875 68.285156 "
       id="path887" />
    <path
       style=" stroke:none;fill-rule:nonzero;fill:rgb(32.939148%,32.939148%,32.939148%);fill-opacity:1;"
       d="M 197.929688 79.085938 L 198.023438 100.261719 L 199.429688 100.257812 L 199.332031 79.078125 L 197.929688 79.085938 "
       id="path889" />
    <path
       style=" stroke:none;fill-rule:nonzero;fill:rgb(32.939148%,32.939148%,32.939148%);fill-opacity:1;"
       d="M 140.925781 90.003906 L 149.019531 109.566406 L 150.316406 109.027344 L 142.222656 89.464844 L 140.925781 90.003906 "
       id="path891" />
    <path
       style=" stroke:none;fill-rule:nonzero;fill:rgb(32.939148%,32.939148%,32.939148%);fill-opacity:1;"
       d="M 139.710938 78.800781 L 151.941406 108.351562 L 153.234375 107.816406 L 141.007812 78.261719 L 139.710938 78.800781 "
       id="path893" />
    <path
       style=" stroke:none;fill-rule:nonzero;fill:rgb(32.939148%,32.939148%,32.939148%);fill-opacity:1;"
       d="M 139.957031 71.132812 L 154.859375 107.140625 L 156.152344 106.605469 L 141.257812 70.59375 L 139.957031 71.132812 "
       id="path895" />
    <path
       style=" stroke:none;fill-rule:nonzero;fill:rgb(32.939148%,32.939148%,32.939148%);fill-opacity:1;"
       d="M 140.808594 64.921875 L 157.777344 105.929688 L 159.074219 105.394531 L 142.105469 64.382812 L 140.808594 64.921875 "
       id="path897" />
    <path
       style=" stroke:none;fill-rule:nonzero;fill:rgb(32.939148%,32.939148%,32.939148%);fill-opacity:1;"
       d="M 145.796875 68.707031 L 160.695312 104.714844 L 161.996094 104.179688 L 147.089844 68.167969 L 145.796875 68.707031 "
       id="path899" />
    <path
       style=" stroke:none;fill-rule:nonzero;fill:rgb(32.939148%,32.939148%,32.939148%);fill-opacity:1;"
       d="M 151.386719 73.953125 L 163.617188 103.507812 L 164.914062 102.964844 L 152.683594 73.414062 L 151.386719 73.953125 "
       id="path901" />
    <path
       style=" stroke:none;fill-rule:nonzero;fill:rgb(32.939148%,32.939148%,32.939148%);fill-opacity:1;"
       d="M 158.441406 82.730469 L 166.535156 102.292969 L 167.832031 101.753906 L 159.738281 82.191406 L 158.441406 82.730469 "
       id="path903" />
    <path
       style=" stroke:none;fill-rule:nonzero;fill:rgb(32.939148%,32.939148%,32.939148%);fill-opacity:1;"
       d="M 159.847656 275.902344 L 161.144531 276.441406 L 169.199219 256.863281 L 167.898438 256.324219 L 159.847656 275.902344 "
       id="path905" />
    <path
       style=" stroke:none;fill-rule:nonzero;fill:rgb(32.939148%,32.939148%,32.939148%);fill-opacity:1;"
       d="M 152.8125 284.699219 L 154.109375 285.230469 L 166.277344 255.65625 L 164.976562 255.117188 L 152.8125 284.699219 "
       id="path907" />
    <path
       style=" stroke:none;fill-rule:nonzero;fill:rgb(32.939148%,32.939148%,32.939148%);fill-opacity:1;"
       d="M 147.230469 289.953125 L 148.527344 290.492188 L 163.355469 254.449219 L 162.058594 253.910156 L 147.230469 289.953125 "
       id="path909" />
    <path
       style=" stroke:none;fill-rule:nonzero;fill:rgb(32.939148%,32.939148%,32.939148%);fill-opacity:1;"
       d="M 142.25 293.75 L 143.550781 294.285156 L 160.433594 253.242188 L 159.136719 252.707031 L 142.25 293.75 "
       id="path911" />
    <path
       style=" stroke:none;fill-rule:nonzero;fill:rgb(32.939148%,32.939148%,32.939148%);fill-opacity:1;"
       d="M 141.386719 287.539062 L 142.6875 288.078125 L 157.515625 252.035156 L 156.214844 251.5 L 141.386719 287.539062 "
       id="path913" />
    <path
       style=" stroke:none;fill-rule:nonzero;fill:rgb(32.939148%,32.939148%,32.939148%);fill-opacity:1;"
       d="M 141.125 279.875 L 142.421875 280.410156 L 154.589844 250.828125 L 153.292969 250.292969 L 141.125 279.875 "
       id="path915" />
    <path
       style=" stroke:none;fill-rule:nonzero;fill:rgb(32.939148%,32.939148%,32.939148%);fill-opacity:1;"
       d="M 142.316406 268.664062 L 143.613281 269.203125 L 151.671875 249.625 L 150.371094 249.089844 L 142.316406 268.664062 "
       id="path917" />
    <path
       style=" stroke:none;fill-rule:nonzero;fill:rgb(32.939148%,32.939148%,32.939148%);fill-opacity:1;"
       d="M 195.292969 258.8125 L 195.335938 279.988281 L 196.738281 279.984375 L 196.699219 258.808594 L 195.292969 258.8125 "
       id="path919" />
    <path
       style=" stroke:none;fill-rule:nonzero;fill:rgb(32.939148%,32.939148%,32.939148%);fill-opacity:1;"
       d="M 192.132812 258.816406 L 192.195312 290.808594 L 193.601562 290.804688 L 193.535156 258.816406 L 192.132812 258.816406 "
       id="path921" />
    <path
       style=" stroke:none;fill-rule:nonzero;fill:rgb(32.939148%,32.939148%,32.939148%);fill-opacity:1;"
       d="M 188.972656 258.824219 L 189.050781 297.804688 L 190.457031 297.804688 L 190.375 258.820312 L 188.972656 258.824219 "
       id="path923" />
    <path
       style=" stroke:none;fill-rule:nonzero;fill:rgb(32.939148%,32.939148%,32.939148%);fill-opacity:1;"
       d="M 185.8125 258.832031 L 185.902344 303.222656 L 187.308594 303.214844 L 187.214844 258.828125 L 185.8125 258.832031 "
       id="path925" />
    <path
       style=" stroke:none;fill-rule:nonzero;fill:rgb(32.939148%,32.939148%,32.939148%);fill-opacity:1;"
       d="M 182.652344 258.839844 L 182.730469 297.816406 L 184.136719 297.816406 L 184.058594 258.832031 L 182.652344 258.839844 "
       id="path927" />
    <path
       style=" stroke:none;fill-rule:nonzero;fill:rgb(32.939148%,32.939148%,32.939148%);fill-opacity:1;"
       d="M 179.492188 258.84375 L 179.558594 290.835938 L 180.960938 290.832031 L 180.898438 258.839844 L 179.492188 258.84375 "
       id="path929" />
    <path
       style=" stroke:none;fill-rule:nonzero;fill:rgb(32.939148%,32.939148%,32.939148%);fill-opacity:1;"
       d="M 176.332031 258.847656 L 176.375 280.027344 L 177.78125 280.023438 L 177.738281 258.84375 L 176.332031 258.847656 "
       id="path931" />
    <path
       style=" stroke:none;fill-rule:nonzero;fill:rgb(32.939148%,32.939148%,32.939148%);fill-opacity:1;"
       d="M 223.289062 252.0625 L 231.425781 271.609375 L 232.722656 271.066406 L 224.589844 251.519531 L 223.289062 252.0625 "
       id="path933" />
    <path
       style=" stroke:none;fill-rule:nonzero;fill:rgb(32.939148%,32.939148%,32.939148%);fill-opacity:1;"
       d="M 220.375 253.277344 L 232.664062 282.808594 L 233.957031 282.269531 L 221.671875 252.742188 L 220.375 253.277344 "
       id="path935" />
    <path
       style=" stroke:none;fill-rule:nonzero;fill:rgb(32.939148%,32.939148%,32.939148%);fill-opacity:1;"
       d="M 217.457031 254.5 L 232.433594 290.480469 L 233.726562 289.9375 L 218.753906 253.957031 L 217.457031 254.5 "
       id="path937" />
    <path
       style=" stroke:none;fill-rule:nonzero;fill:rgb(32.939148%,32.939148%,32.939148%);fill-opacity:1;"
       d="M 214.539062 255.714844 L 231.59375 296.6875 L 232.886719 296.148438 L 215.839844 255.175781 L 214.539062 255.714844 "
       id="path939" />
    <path
       style=" stroke:none;fill-rule:nonzero;fill:rgb(32.939148%,32.939148%,32.939148%);fill-opacity:1;"
       d="M 211.625 256.9375 L 226.597656 292.914062 L 227.894531 292.375 L 212.917969 256.394531 L 211.625 256.9375 "
       id="path941" />
    <path
       style=" stroke:none;fill-rule:nonzero;fill:rgb(32.939148%,32.939148%,32.939148%);fill-opacity:1;"
       d="M 208.707031 258.152344 L 220.996094 287.683594 L 222.292969 287.140625 L 210.003906 257.613281 L 208.707031 258.152344 "
       id="path943" />
    <path
       style=" stroke:none;fill-rule:nonzero;fill:rgb(32.939148%,32.939148%,32.939148%);fill-opacity:1;"
       d="M 205.792969 259.371094 L 213.925781 278.917969 L 215.222656 278.375 L 207.085938 258.832031 L 205.792969 259.371094 "
       id="path945" />
    <path
       style=" stroke:none;fill-rule:nonzero;fill:rgb(32.939148%,32.939148%,32.939148%);fill-opacity:1;"
       d="M 262.808594 205.875 L 282.359375 213.925781 L 282.890625 212.621094 L 263.339844 204.574219 L 262.808594 205.875 "
       id="path947" />
    <path
       style=" stroke:none;fill-rule:nonzero;fill:rgb(32.939148%,32.939148%,32.939148%);fill-opacity:1;"
       d="M 261.609375 208.804688 L 291.144531 220.964844 L 291.679688 219.664062 L 262.140625 207.503906 L 261.609375 208.804688 "
       id="path949" />
    <path
       style=" stroke:none;fill-rule:nonzero;fill:rgb(32.939148%,32.939148%,32.939148%);fill-opacity:1;"
       d="M 260.40625 211.730469 L 296.398438 226.546875 L 296.933594 225.246094 L 260.9375 210.433594 L 260.40625 211.730469 "
       id="path951" />
    <path
       style=" stroke:none;fill-rule:nonzero;fill:rgb(32.939148%,32.939148%,32.939148%);fill-opacity:1;"
       d="M 259.203125 214.660156 L 300.191406 231.53125 L 300.722656 230.230469 L 259.738281 213.359375 L 259.203125 214.660156 "
       id="path953" />
    <path
       style=" stroke:none;fill-rule:nonzero;fill:rgb(32.939148%,32.939148%,32.939148%);fill-opacity:1;"
       d="M 258.003906 217.589844 L 293.996094 232.40625 L 294.53125 231.105469 L 258.535156 216.289062 L 258.003906 217.589844 "
       id="path955" />
    <path
       style=" stroke:none;fill-rule:nonzero;fill:rgb(32.939148%,32.939148%,32.939148%);fill-opacity:1;"
       d="M 256.800781 220.519531 L 286.339844 232.675781 L 286.875 231.375 L 257.335938 219.214844 L 256.800781 220.519531 "
       id="path957" />
    <path
       style=" stroke:none;fill-rule:nonzero;fill:rgb(32.939148%,32.939148%,32.939148%);fill-opacity:1;"
       d="M 255.601562 223.445312 L 275.152344 231.492188 L 275.6875 230.191406 L 256.132812 222.140625 L 255.601562 223.445312 "
       id="path959" />
    <path
       style=" stroke:none;fill-rule:nonzero;fill:rgb(32.939148%,32.939148%,32.939148%);fill-opacity:1;"
       d="M 266.707031 173.527344 L 266.710938 174.933594 L 287.847656 174.871094 L 287.847656 173.464844 L 266.707031 173.527344 "
       id="path961" />
    <path
       style=" stroke:none;fill-rule:nonzero;fill:rgb(32.939148%,32.939148%,32.939148%);fill-opacity:1;"
       d="M 266.71875 176.695312 L 266.71875 178.101562 L 298.65625 178.003906 L 298.652344 176.59375 L 266.71875 176.695312 "
       id="path963" />
    <path
       style=" stroke:none;fill-rule:nonzero;fill:rgb(32.939148%,32.939148%,32.939148%);fill-opacity:1;"
       d="M 266.726562 179.859375 L 266.730469 181.265625 L 305.640625 181.148438 L 305.636719 179.738281 L 266.726562 179.859375 "
       id="path965" />
    <g
       clip-path="url(#clip3)"
       clip-rule="nonzero"
       id="g969">
      <path
         style=" stroke:none;fill-rule:nonzero;fill:rgb(32.939148%,32.939148%,32.939148%);fill-opacity:1;"
         d="M 266.734375 183.023438 L 266.742188 184.429688 L 311.050781 184.296875 L 311.046875 182.890625 L 266.734375 183.023438 "
         id="path967" />
    </g>
    <path
       style=" stroke:none;fill-rule:nonzero;fill:rgb(32.939148%,32.939148%,32.939148%);fill-opacity:1;"
       d="M 266.746094 186.191406 L 266.75 187.597656 L 305.664062 187.480469 L 305.65625 186.070312 L 266.746094 186.191406 "
       id="path971" />
    <path
       style=" stroke:none;fill-rule:nonzero;fill:rgb(32.939148%,32.939148%,32.939148%);fill-opacity:1;"
       d="M 266.757812 189.359375 L 266.757812 190.765625 L 298.691406 190.664062 L 298.691406 189.257812 L 266.757812 189.359375 "
       id="path973" />
    <path
       style=" stroke:none;fill-rule:nonzero;fill:rgb(32.939148%,32.939148%,32.939148%);fill-opacity:1;"
       d="M 266.765625 192.523438 L 266.769531 193.929688 L 287.910156 193.863281 L 287.902344 192.457031 L 266.765625 192.523438 "
       id="path975" />
    <path
       style=" stroke:none;fill-rule:nonzero;fill:rgb(32.939148%,32.939148%,32.939148%);fill-opacity:1;"
       d="M 257.949219 143.558594 L 258.488281 144.855469 L 277.992188 136.683594 L 277.453125 135.386719 L 257.949219 143.558594 "
       id="path977" />
    <path
       style=" stroke:none;fill-rule:nonzero;fill:rgb(32.939148%,32.939148%,32.939148%);fill-opacity:1;"
       d="M 259.167969 146.476562 L 259.710938 147.773438 L 289.171875 135.433594 L 288.628906 134.136719 L 259.167969 146.476562 "
       id="path979" />
    <path
       style=" stroke:none;fill-rule:nonzero;fill:rgb(32.939148%,32.939148%,32.939148%);fill-opacity:1;"
       d="M 260.386719 149.398438 L 260.929688 150.695312 L 296.828125 135.65625 L 296.289062 134.359375 L 260.386719 149.398438 "
       id="path981" />
    <path
       style=" stroke:none;fill-rule:nonzero;fill:rgb(32.939148%,32.939148%,32.939148%);fill-opacity:1;"
       d="M 261.605469 152.316406 L 262.148438 153.613281 L 303.027344 136.492188 L 302.488281 135.195312 L 261.605469 152.316406 "
       id="path983" />
    <path
       style=" stroke:none;fill-rule:nonzero;fill:rgb(32.939148%,32.939148%,32.939148%);fill-opacity:1;"
       d="M 262.824219 155.238281 L 263.367188 156.535156 L 299.265625 141.5 L 298.726562 140.203125 L 262.824219 155.238281 "
       id="path985" />
    <path
       style=" stroke:none;fill-rule:nonzero;fill:rgb(32.939148%,32.939148%,32.939148%);fill-opacity:1;"
       d="M 264.042969 158.160156 L 264.585938 159.457031 L 294.050781 147.117188 L 293.507812 145.820312 L 264.042969 158.160156 "
       id="path987" />
    <path
       style=" stroke:none;fill-rule:nonzero;fill:rgb(32.939148%,32.939148%,32.939148%);fill-opacity:1;"
       d="M 265.265625 161.078125 L 265.804688 162.378906 L 285.308594 154.210938 L 284.765625 152.914062 L 265.265625 161.078125 "
       id="path989" />
    <path
       style=" stroke:none;fill-rule:nonzero;fill:rgb(32.939148%,32.939148%,32.939148%);fill-opacity:1;"
       d="M 209.632812 104.253906 L 210.933594 104.785156 L 218.945312 85.191406 L 217.648438 84.65625 L 209.632812 104.253906 "
       id="path991" />
    <path
       style=" stroke:none;fill-rule:nonzero;fill:rgb(32.939148%,32.939148%,32.939148%);fill-opacity:1;"
       d="M 212.558594 105.453125 L 213.855469 105.984375 L 225.964844 76.382812 L 224.664062 75.851562 L 212.558594 105.453125 "
       id="path993" />
    <path
       style=" stroke:none;fill-rule:nonzero;fill:rgb(32.939148%,32.939148%,32.939148%);fill-opacity:1;"
       d="M 215.480469 106.652344 L 216.78125 107.1875 L 231.535156 71.117188 L 230.234375 70.582031 L 215.480469 106.652344 "
       id="path995" />
    <path
       style=" stroke:none;fill-rule:nonzero;fill:rgb(32.939148%,32.939148%,32.939148%);fill-opacity:1;"
       d="M 218.40625 107.851562 L 219.703125 108.386719 L 236.503906 67.3125 L 235.203125 66.777344 L 218.40625 107.851562 "
       id="path997" />
    <path
       style=" stroke:none;fill-rule:nonzero;fill:rgb(32.939148%,32.939148%,32.939148%);fill-opacity:1;"
       d="M 221.332031 109.054688 L 222.628906 109.589844 L 237.382812 73.515625 L 236.082031 72.980469 L 221.332031 109.054688 "
       id="path999" />
    <path
       style=" stroke:none;fill-rule:nonzero;fill:rgb(32.939148%,32.939148%,32.939148%);fill-opacity:1;"
       d="M 224.253906 110.253906 L 225.550781 110.789062 L 237.660156 81.183594 L 236.359375 80.652344 L 224.253906 110.253906 "
       id="path1001" />
    <path
       style=" stroke:none;fill-rule:nonzero;fill:rgb(32.939148%,32.939148%,32.939148%);fill-opacity:1;"
       d="M 227.175781 111.453125 L 228.476562 111.988281 L 236.492188 92.390625 L 235.191406 91.859375 L 227.175781 111.453125 "
       id="path1003" />
    <path
       style=" stroke:none;fill-rule:nonzero;fill:rgb(32.939148%,32.939148%,32.939148%);fill-opacity:1;"
       d="M 91.824219 212.621094 L 92.359375 213.925781 L 111.910156 205.875 L 111.378906 204.574219 L 91.824219 212.621094 "
       id="path1005" />
    <path
       style=" stroke:none;fill-rule:nonzero;fill:rgb(32.939148%,32.939148%,32.939148%);fill-opacity:1;"
       d="M 83.039062 219.664062 L 83.574219 220.964844 L 113.113281 208.804688 L 112.578125 207.503906 L 83.039062 219.664062 "
       id="path1007" />
    <path
       style=" stroke:none;fill-rule:nonzero;fill:rgb(32.939148%,32.939148%,32.939148%);fill-opacity:1;"
       d="M 77.785156 225.246094 L 78.320312 226.546875 L 114.3125 211.730469 L 113.78125 210.433594 L 77.785156 225.246094 "
       id="path1009" />
    <path
       style=" stroke:none;fill-rule:nonzero;fill:rgb(32.939148%,32.939148%,32.939148%);fill-opacity:1;"
       d="M 73.996094 230.230469 L 74.527344 231.53125 L 115.515625 214.660156 L 114.980469 213.359375 L 73.996094 230.230469 "
       id="path1011" />
    <path
       style=" stroke:none;fill-rule:nonzero;fill:rgb(32.939148%,32.939148%,32.939148%);fill-opacity:1;"
       d="M 80.191406 231.105469 L 80.722656 232.40625 L 116.714844 217.589844 L 116.179688 216.289062 L 80.191406 231.105469 "
       id="path1013" />
    <path
       style=" stroke:none;fill-rule:nonzero;fill:rgb(32.939148%,32.939148%,32.939148%);fill-opacity:1;"
       d="M 87.84375 231.375 L 88.378906 232.675781 L 117.917969 220.519531 L 117.382812 219.214844 L 87.84375 231.375 "
       id="path1015" />
    <path
       style=" stroke:none;fill-rule:nonzero;fill:rgb(32.939148%,32.939148%,32.939148%);fill-opacity:1;"
       d="M 99.03125 230.191406 L 99.566406 231.492188 L 119.117188 223.445312 L 118.582031 222.140625 L 99.03125 230.191406 "
       id="path1017" />
    <path
       style=" stroke:none;fill-rule:nonzero;fill:rgb(32.939148%,32.939148%,32.939148%);fill-opacity:1;"
       d="M 86.867188 174.871094 L 108.007812 174.933594 L 108.011719 173.527344 L 86.875 173.464844 L 86.867188 174.871094 "
       id="path1019" />
    <path
       style=" stroke:none;fill-rule:nonzero;fill:rgb(32.939148%,32.939148%,32.939148%);fill-opacity:1;"
       d="M 76.0625 178.003906 L 108 178.101562 L 108 176.695312 L 76.066406 176.59375 L 76.0625 178.003906 "
       id="path1021" />
    <path
       style=" stroke:none;fill-rule:nonzero;fill:rgb(32.939148%,32.939148%,32.939148%);fill-opacity:1;"
       d="M 69.074219 181.148438 L 107.988281 181.265625 L 107.992188 179.859375 L 69.082031 179.738281 L 69.074219 181.148438 "
       id="path1023" />
    <g
       clip-path="url(#clip4)"
       clip-rule="nonzero"
       id="g1027">
      <path
         style=" stroke:none;fill-rule:nonzero;fill:rgb(32.939148%,32.939148%,32.939148%);fill-opacity:1;"
         d="M 63.667969 184.296875 L 107.976562 184.429688 L 107.984375 183.023438 L 63.671875 182.890625 L 63.667969 184.296875 "
         id="path1025" />
    </g>
    <path
       style=" stroke:none;fill-rule:nonzero;fill:rgb(32.939148%,32.939148%,32.939148%);fill-opacity:1;"
       d="M 69.058594 187.480469 L 107.96875 187.597656 L 107.972656 186.191406 L 69.058594 186.070312 L 69.058594 187.480469 "
       id="path1029" />
    <path
       style=" stroke:none;fill-rule:nonzero;fill:rgb(32.939148%,32.939148%,32.939148%);fill-opacity:1;"
       d="M 76.023438 190.664062 L 107.960938 190.765625 L 107.960938 189.359375 L 76.027344 189.257812 L 76.023438 190.664062 "
       id="path1031" />
    <path
       style=" stroke:none;fill-rule:nonzero;fill:rgb(32.939148%,32.939148%,32.939148%);fill-opacity:1;"
       d="M 86.8125 193.863281 L 107.949219 193.929688 L 107.953125 192.523438 L 86.816406 192.457031 L 86.8125 193.863281 "
       id="path1033" />
    <path
       style=" stroke:none;fill-rule:nonzero;fill:rgb(32.939148%,32.939148%,32.939148%);fill-opacity:1;"
       d="M 96.726562 136.683594 L 116.226562 144.855469 L 116.769531 143.558594 L 97.269531 135.386719 L 96.726562 136.683594 "
       id="path1035" />
    <path
       style=" stroke:none;fill-rule:nonzero;fill:rgb(32.939148%,32.939148%,32.939148%);fill-opacity:1;"
       d="M 85.546875 135.433594 L 115.007812 147.773438 L 115.550781 146.476562 L 86.089844 134.136719 L 85.546875 135.433594 "
       id="path1037" />
    <path
       style=" stroke:none;fill-rule:nonzero;fill:rgb(32.939148%,32.939148%,32.939148%);fill-opacity:1;"
       d="M 77.890625 135.65625 L 113.789062 150.695312 L 114.332031 149.398438 L 78.429688 134.359375 L 77.890625 135.65625 "
       id="path1039" />
    <path
       style=" stroke:none;fill-rule:nonzero;fill:rgb(32.939148%,32.939148%,32.939148%);fill-opacity:1;"
       d="M 71.6875 136.492188 L 112.570312 153.613281 L 113.113281 152.316406 L 72.230469 135.195312 L 71.6875 136.492188 "
       id="path1041" />
    <path
       style=" stroke:none;fill-rule:nonzero;fill:rgb(32.939148%,32.939148%,32.939148%);fill-opacity:1;"
       d="M 75.453125 141.5 L 111.351562 156.535156 L 111.890625 155.238281 L 75.992188 140.203125 L 75.453125 141.5 "
       id="path1043" />
    <path
       style=" stroke:none;fill-rule:nonzero;fill:rgb(32.939148%,32.939148%,32.939148%);fill-opacity:1;"
       d="M 80.667969 147.117188 L 110.132812 159.457031 L 110.675781 158.160156 L 81.210938 145.820312 L 80.667969 147.117188 "
       id="path1045" />
    <path
       style=" stroke:none;fill-rule:nonzero;fill:rgb(32.939148%,32.939148%,32.939148%);fill-opacity:1;"
       d="M 89.410156 154.210938 L 108.914062 162.378906 L 109.457031 161.078125 L 89.953125 152.914062 L 89.410156 154.210938 "
       id="path1047" />
    <g
       clip-path="url(#clip5)"
       clip-rule="nonzero"
       id="g1051">
      <path
         style=" stroke:none;fill-rule:nonzero;fill:rgb(32.939148%,32.939148%,32.939148%);fill-opacity:1;"
         d="M 77.234375 323.308594 L 81.648438 317.914062 C 82.257812 317.171875 83.359375 317.0625 84.101562 317.671875 C 84.84375 318.28125 84.949219 319.382812 84.34375 320.128906 L 79.925781 325.519531 C 79.320312 326.265625 78.214844 326.371094 77.476562 325.765625 C 76.734375 325.15625 76.625 324.050781 77.234375 323.308594 Z M 77.714844 310.074219 L 68.882812 320.863281 L 80.191406 330.15625 L 89.027344 319.367188 L 77.714844 310.074219 "
         id="path1049" />
    </g>
    <path
       style=" stroke:none;fill-rule:nonzero;fill:rgb(32.939148%,32.939148%,32.939148%);fill-opacity:1;"
       d="M 96.976562 309.65625 L 93.441406 313.972656 L 82.132812 304.679688 L 85.667969 300.363281 L 96.976562 309.65625 "
       id="path1053" />
    <path
       style=" stroke:none;fill-rule:nonzero;fill:rgb(32.939148%,32.939148%,32.939148%);fill-opacity:1;"
       d="M 227.449219 127.179688 L 90.082031 294.96875 L 101.390625 304.261719 L 238.757812 136.472656 L 227.449219 127.179688 "
       id="path1055" />
    <path
       style="stroke:none;fill-rule:nonzero;fill:#808080;fill-opacity:1"
       d="M 227.082031 140.644531 C 227.648438 139.949219 228.679688 139.847656 229.367188 140.414062 C 230.058594 140.980469 230.160156 142.011719 229.59375 142.707031 L 102.378906 298.09375 C 101.8125 298.785156 100.78125 298.890625 100.089844 298.320312 C 99.402344 297.753906 99.296875 296.722656 99.867188 296.03125 L 227.082031 140.644531 "
       id="path1057" />
    <path
       style=" stroke:none;fill-rule:nonzero;fill:rgb(32.939148%,32.939148%,32.939148%);fill-opacity:1;"
       d="M 222.355469 125.699219 C 223.816406 123.921875 226.460938 123.660156 228.238281 125.117188 L 241.160156 135.738281 C 242.941406 137.199219 243.203125 139.851562 241.742188 141.628906 C 240.289062 143.410156 237.640625 143.671875 235.859375 142.210938 L 222.9375 131.59375 C 221.160156 130.132812 220.898438 127.480469 222.355469 125.699219 "
       id="path1059" />
    <path
       style=" stroke:none;fill-rule:nonzero;fill:rgb(32.939148%,32.939148%,32.939148%);fill-opacity:1;"
       d="M 226.773438 120.304688 C 228.230469 118.523438 230.875 118.261719 232.65625 119.722656 L 245.582031 130.339844 C 247.355469 131.800781 247.617188 134.453125 246.160156 136.234375 C 244.703125 138.015625 242.054688 138.277344 240.28125 136.816406 L 227.355469 126.199219 C 225.574219 124.738281 225.316406 122.085938 226.773438 120.304688 "
       id="path1061" />
    <path
       style=" stroke:none;fill-rule:nonzero;fill:rgb(32.939148%,32.939148%,32.939148%);fill-opacity:1;"
       d="M 231.191406 114.910156 C 232.648438 113.128906 235.296875 112.867188 237.070312 114.328125 L 249.996094 124.949219 C 251.773438 126.40625 252.035156 129.058594 250.578125 130.839844 C 249.121094 132.621094 246.472656 132.882812 244.695312 131.421875 L 231.769531 120.800781 C 229.996094 119.339844 229.734375 116.691406 231.191406 114.910156 "
       id="path1063" />
    <path
       style=" stroke:none;fill-rule:nonzero;fill:rgb(32.939148%,32.939148%,32.939148%);fill-opacity:1;"
       d="M 241.488281 108.933594 L 254.414062 119.554688 C 256.191406 121.011719 256.453125 123.664062 254.996094 125.445312 C 253.535156 127.226562 250.890625 127.488281 249.113281 126.027344 L 236.191406 115.40625 C 234.410156 113.945312 234.148438 111.296875 235.609375 109.515625 C 237.066406 107.734375 239.710938 107.472656 241.488281 108.933594 "
       id="path1065" />
    <path
       style=" stroke:none;fill-rule:nonzero;fill:rgb(32.939148%,32.939148%,32.939148%);fill-opacity:1;"
       d="M 241.550781 107.390625 C 242.902344 105.738281 245.359375 105.492188 247.007812 106.847656 L 255.621094 113.929688 C 257.273438 115.28125 257.515625 117.742188 256.164062 119.394531 L 254.011719 122.023438 C 252.660156 123.671875 250.207031 123.914062 248.554688 122.5625 L 239.9375 115.480469 C 238.292969 114.125 238.046875 111.667969 239.402344 110.015625 L 241.550781 107.390625 "
       id="path1067" />
    <g
       clip-path="url(#clip6)"
       clip-rule="nonzero"
       id="g1071">
      <path
         style=" stroke:none;fill-rule:nonzero;fill:rgb(32.939148%,32.939148%,32.939148%);fill-opacity:1;"
         d="M 253.457031 108.667969 L 298.613281 53.511719 L 271.367188 105.132812 C 265.546875 100.75 253.457031 108.667969 253.457031 108.667969 Z M 238.523438 126.859375 C 238.523438 126.859375 256.117188 108.386719 271.867188 112.535156 L 305.421875 45.144531 L 246.015625 91.296875 C 253.160156 105.960938 238.523438 126.859375 238.523438 126.859375 "
         id="path1069" />
    </g>
    <path
       style=" stroke:none;fill-rule:nonzero;fill:rgb(32.939148%,32.939148%,32.939148%);fill-opacity:1;"
       d="M 130.988281 169.304688 L 237.484375 169.304688 L 237.484375 254.054688 L 130.988281 254.054688 Z M 130.988281 169.304688 "
       id="path1073" />
    <path
       style=" stroke:none;fill-rule:nonzero;fill:rgb(32.939148%,32.939148%,32.939148%);fill-opacity:1;"
       d="M 168.183594 222.878906 L 201.183594 222.878906 L 201.183594 306.859375 L 168.183594 306.859375 Z M 168.183594 222.878906 "
       id="path1075" />
    <g
       clip-path="url(#clip7)"
       clip-rule="nonzero"
       id="g1079">
      <path
         style=" stroke:none;fill-rule:nonzero;fill:rgb(13.729858%,12.159729%,12.548828%);fill-opacity:1;"
         d="M 250.703125 156.355469 L 224.464844 145.550781 C 220.722656 133.835938 211.976562 124.351562 200.730469 119.664062 C 200.722656 119.664062 200.714844 119.660156 200.710938 119.65625 C 203.617188 99.695312 206.792969 79.785156 210.265625 59.894531 C 193.957031 57.316406 175.386719 57.316406 159.074219 59.894531 C 162.550781 79.789062 165.722656 99.699219 168.628906 119.664062 C 168.628906 119.664062 168.625 119.664062 168.625 119.664062 C 157.375 124.351562 148.628906 133.804688 144.914062 145.527344 L 118.621094 156.355469 L 124.382812 217.261719 L 118.621094 249.882812 L 170.320312 330.347656 L 170.320312 222.675781 C 170.320312 222.675781 129.628906 204.734375 137.757812 195.496094 C 141.28125 191.480469 149.140625 189.515625 156.917969 189.460938 C 167.035156 189.40625 177.019531 192.585938 177.019531 198.753906 L 177.019531 199.320312 C 176.992188 210.878906 176.1875 246.652344 184.664062 247.703125 C 193.140625 246.652344 192.363281 210.851562 192.332031 199.320312 L 192.332031 198.753906 C 192.332031 192.585938 202.292969 189.40625 212.410156 189.460938 C 220.160156 189.515625 228.046875 191.480469 231.570312 195.496094 C 239.699219 204.734375 199.035156 222.675781 199.035156 222.675781 L 199.035156 330.347656 L 250.703125 249.882812 L 244.972656 217.261719 L 250.703125 156.355469 "
         id="path1077" />
    </g>
  </g>
</svg>
