<?xml version="1.0" encoding="UTF-8" standalone="no"?>
<svg
   width="375pt"
   height="374.999991pt"
   viewBox="0 0 375 374.999991"
   version="1.2"
   id="svg886"
   sodipodi:docname="avalonicon.svg"
   inkscape:version="1.1 (c4e8f9e, 2021-05-24)"
   xmlns:inkscape="http://www.inkscape.org/namespaces/inkscape"
   xmlns:sodipodi="http://sodipodi.sourceforge.net/DTD/sodipodi-0.dtd"
   xmlns="http://www.w3.org/2000/svg"
   xmlns:svg="http://www.w3.org/2000/svg">
  <sodipodi:namedview
     id="namedview888"
     pagecolor="#505050"
     bordercolor="#ffffff"
     borderopacity="1"
     inkscape:pageshadow="0"
     inkscape:pageopacity="0"
     inkscape:pagecheckerboard="1"
     inkscape:document-units="pt"
     showgrid="false"
     inkscape:zoom="1.186"
     inkscape:cx="250"
     inkscape:cy="250"
     inkscape:window-width="1440"
     inkscape:window-height="815"
     inkscape:window-x="0"
     inkscape:window-y="25"
     inkscape:window-maximized="1"
     inkscape:current-layer="surface1" />
  <defs
     id="defs839">
    <clipPath
       id="clip1">
      <path
         d="M 240 251 L 293.722656 251 L 293.722656 326.53125 L 240 326.53125 Z M 240 251 "
         id="path824" />
    </clipPath>
    <clipPath
       id="clip2">
      <path
         d="M 245 50 L 293.722656 50 L 293.722656 105 L 245 105 Z M 245 50 "
         id="path827" />
    </clipPath>
    <clipPath
       id="clip3">
      <path
         d="M 82 251 L 136 251 L 136 326.53125 L 82 326.53125 Z M 82 251 "
         id="path830" />
    </clipPath>
    <clipPath
       id="clip4">
      <path
         d="M 143.722656 163 L 230.382812 163 L 230.382812 265.238281 L 143.722656 265.238281 Z M 143.722656 163 "
         id="path833" />
    </clipPath>
    <clipPath
       id="clip5">
      <path
         d="M 178 149.691406 L 196 149.691406 L 196 201 L 178 201 Z M 178 149.691406 "
         id="path836" />
    </clipPath>
  </defs>
  <g
     id="surface1">
    <path
       style=" stroke:none;fill-rule:nonzero;fill:rgb(7.058716%,6.269836%,5.879211%);fill-opacity:1;"
       d="M 225.851562 162.148438 C 211.179688 158.171875 191.0625 140.136719 189.332031 138.5625 L 189.332031 138.453125 C 189.332031 138.453125 189.3125 138.472656 189.269531 138.511719 C 189.230469 138.472656 189.210938 138.453125 189.210938 138.453125 L 189.210938 138.5625 C 187.476562 140.136719 167.363281 158.171875 152.6875 162.148438 C 131.941406 167.761719 109.210938 160.230469 109.210938 160.230469 C 109.210938 160.230469 115.925781 293.636719 189.210938 319.605469 L 189.210938 319.636719 C 189.222656 319.640625 189.234375 319.640625 189.234375 319.640625 C 189.246094 319.636719 189.257812 319.632812 189.269531 319.625 C 189.28125 319.632812 189.296875 319.636719 189.308594 319.640625 C 189.308594 319.640625 189.316406 319.640625 189.332031 319.636719 L 189.332031 319.605469 C 262.617188 293.636719 269.332031 160.230469 269.332031 160.230469 C 269.332031 160.230469 246.597656 167.761719 225.851562 162.148438 "
       id="path845" />
    <path
       style=" stroke:none;fill-rule:nonzero;fill:rgb(7.058716%,6.269836%,5.879211%);fill-opacity:1;"
       d="M 125.761719 103.820312 L 117.960938 109.617188 L 123.671875 117.292969 L 115.265625 137.542969 L 120.703125 144.855469 L 140.683594 141.242188 L 140.671875 141.230469 L 159.027344 127.589844 L 159.035156 127.601562 L 168.246094 109.519531 L 162.808594 102.207031 L 140.984375 104.429688 L 135.273438 96.75 L 127.472656 102.550781 L 125.761719 103.820312 "
       id="path847" />
    <path
       style=" stroke:none;fill-rule:nonzero;fill:rgb(7.058716%,6.269836%,5.879211%);fill-opacity:1;"
       d="M 94.648438 73.722656 L 117.703125 104.710938 L 130.648438 95.089844 L 107.59375 64.101562 C 110.09375 61.242188 110.363281 56.910156 108.011719 53.746094 C 105.300781 50.105469 100.105469 49.34375 96.464844 52.050781 L 86.296875 59.609375 C 82.65625 62.3125 81.894531 67.503906 84.601562 71.144531 C 86.957031 74.308594 91.1875 75.296875 94.648438 73.722656 "
       id="path849" />
    <path
       style=" stroke:none;fill-rule:nonzero;fill:rgb(7.058716%,6.269836%,5.879211%);fill-opacity:1;"
       d="M 160.757812 129.789062 L 152.949219 135.59375 L 162.65625 148.902344 C 165.546875 147.085938 168.449219 145.066406 171.1875 143.03125 L 160.757812 129.789062 "
       id="path851" />
    <g
       clip-path="url(#clip1)"
       clip-rule="nonzero"
       id="g855">
      <path
         style=" stroke:none;fill-rule:nonzero;fill:rgb(7.058716%,6.269836%,5.879211%);fill-opacity:1;"
         d="M 293.25 327.136719 L 278.8125 279.699219 L 256.238281 251.027344 C 254.023438 256.8125 251.65625 262.308594 249.144531 267.507812 L 262.128906 285.316406 L 248.9375 267.9375 C 246.273438 273.402344 243.449219 278.535156 240.464844 283.320312 L 251.945312 299.667969 L 293.25 327.136719 "
         id="path853" />
    </g>
    <path
       style=" stroke:none;fill-rule:nonzero;fill:rgb(7.058716%,6.269836%,5.879211%);fill-opacity:1;"
       d="M 150.09375 137.71875 L 142.28125 143.523438 L 150.332031 154.984375 C 153.226562 154.101562 156.496094 152.53125 159.859375 150.582031 L 150.09375 137.71875 "
       id="path857" />
    <path
       style=" stroke:none;fill-rule:nonzero;fill:rgb(7.058716%,6.269836%,5.879211%);fill-opacity:1;"
       d="M 217.199219 127.589844 L 235.550781 141.230469 L 235.546875 141.242188 L 255.523438 144.855469 L 260.960938 137.542969 L 252.554688 117.292969 L 258.265625 109.617188 L 250.460938 103.820312 L 248.757812 102.550781 L 240.957031 96.75 L 235.246094 104.429688 L 213.421875 102.207031 L 207.980469 109.519531 L 217.191406 127.601562 L 217.199219 127.589844 "
       id="path859" />
    <g
       clip-path="url(#clip2)"
       clip-rule="nonzero"
       id="g863">
      <path
         style=" stroke:none;fill-rule:nonzero;fill:rgb(7.058716%,6.269836%,5.879211%);fill-opacity:1;"
         d="M 258.527344 104.710938 L 281.582031 73.722656 C 285.039062 75.296875 289.273438 74.308594 291.625 71.144531 C 294.335938 67.503906 293.570312 62.3125 289.929688 59.609375 L 279.757812 52.050781 C 276.117188 49.34375 270.921875 50.105469 268.21875 53.746094 C 265.859375 56.910156 266.136719 61.242188 268.636719 64.101562 L 245.582031 95.089844 L 258.527344 104.710938 "
         id="path861" />
    </g>
    <g
       clip-path="url(#clip3)"
       clip-rule="nonzero"
       id="g867">
      <path
         style=" stroke:none;fill-rule:nonzero;fill:rgb(7.058716%,6.269836%,5.879211%);fill-opacity:1;"
         d="M 114.097656 285.316406 L 127.082031 267.507812 C 124.570312 262.308594 122.203125 256.8125 119.992188 251.027344 L 97.414062 279.699219 L 82.980469 327.136719 L 124.28125 299.667969 L 135.765625 283.320312 C 132.777344 278.535156 129.949219 273.402344 127.289062 267.9375 L 114.097656 285.316406 "
         id="path865" />
    </g>
    <path
       style=" stroke:none;fill-rule:nonzero;fill:rgb(7.058716%,6.269836%,5.879211%);fill-opacity:1;"
       d="M 223.28125 135.59375 L 215.464844 129.789062 L 205.039062 143.03125 C 207.777344 145.066406 210.679688 147.089844 213.574219 148.902344 L 223.28125 135.59375 "
       id="path869" />
    <path
       style=" stroke:none;fill-rule:nonzero;fill:rgb(7.058716%,6.269836%,5.879211%);fill-opacity:1;"
       d="M 233.945312 143.523438 L 226.132812 137.71875 L 216.363281 150.582031 C 219.730469 152.53125 223 154.101562 225.898438 154.984375 L 233.945312 143.523438 "
       id="path871" />
    <g
       clip-path="url(#clip4)"
       clip-rule="nonzero"
       id="g875">
      <path
         style=" stroke:none;fill-rule:nonzero;fill:rgb(100%,100%,100%);fill-opacity:1;"
         d="M 196.757812 217.636719 L 196.757812 265.238281 L 230.386719 242.441406 L 228.332031 203.125 C 227.191406 181.089844 209.046875 163.808594 187.054688 163.808594 C 165.058594 163.808594 146.917969 181.089844 145.773438 203.125 L 143.71875 242.441406 L 177.347656 265.238281 L 177.347656 217.636719 L 160.007812 208.042969 L 160.007812 192.136719 L 183.925781 200.101562 L 183.925781 240.167969 L 187.054688 243.800781 L 190.179688 240.167969 L 190.179688 200.101562 L 214.097656 192.136719 L 214.097656 208.042969 Z M 196.757812 217.636719 "
         id="path873" />
    </g>
    <path
       style=" stroke:none;fill-rule:nonzero;fill:rgb(100%,100%,100%);fill-opacity:1;"
       d="M 216.238281 175.929688 C 208.5 168.160156 198 163.800781 187.054688 163.808594 C 176.105469 163.800781 165.605469 168.160156 157.867188 175.929688 C 166.667969 181.261719 176.773438 184.019531 187.054688 183.894531 C 197.332031 184.019531 207.4375 181.261719 216.238281 175.929688 Z M 216.238281 175.929688 "
       id="path877" />
    <g
       clip-path="url(#clip5)"
       clip-rule="nonzero"
       id="g881">
      <path
         style=" stroke:none;fill-rule:nonzero;fill:rgb(100%,100%,100%);fill-opacity:1;"
         d="M 194.140625 196.328125 L 187.054688 200.484375 L 179.964844 196.328125 L 178.714844 155.339844 L 187.054688 149.691406 L 195.390625 155.339844 Z M 194.140625 196.328125 "
         id="path879" />
    </g>
    <path
       style=" stroke:none;fill-rule:nonzero;fill:rgb(100%,100%,100%);fill-opacity:1;"
       d="M 187.054688 180.097656 C 185.886719 180.097656 184.9375 181.046875 184.9375 182.21875 L 184.9375 199.230469 C 184.9375 202.058594 189.167969 202.058594 189.167969 199.230469 L 189.167969 182.21875 C 189.167969 181.046875 188.21875 180.097656 187.054688 180.097656 Z M 187.054688 180.097656 "
       id="path883" />
  </g>
</svg>
