<?xml version="1.0" encoding="UTF-8" standalone="no"?>
<svg
   width="375pt"
   height="374.999991pt"
   viewBox="0 0 375 374.999991"
   version="1.2"
   id="svg1918"
   sodipodi:docname="dynastyicon.svg"
   inkscape:version="1.1 (c4e8f9e, 2021-05-24)"
   xmlns:inkscape="http://www.inkscape.org/namespaces/inkscape"
   xmlns:sodipodi="http://sodipodi.sourceforge.net/DTD/sodipodi-0.dtd"
   xmlns:xlink="http://www.w3.org/1999/xlink"
   xmlns="http://www.w3.org/2000/svg"
   xmlns:svg="http://www.w3.org/2000/svg">
  <sodipodi:namedview
     id="namedview1920"
     pagecolor="#505050"
     bordercolor="#ffffff"
     borderopacity="1"
     inkscape:pageshadow="0"
     inkscape:pageopacity="0"
     inkscape:pagecheckerboard="1"
     inkscape:document-units="pt"
     showgrid="false"
     inkscape:zoom="1.186"
     inkscape:cx="250"
     inkscape:cy="250"
     inkscape:window-width="1296"
     inkscape:window-height="815"
     inkscape:window-x="0"
     inkscape:window-y="25"
     inkscape:window-maximized="0"
     inkscape:current-layer="surface1" />
  <defs
     id="defs1883">
    <clipPath
       id="clip1">
      <path
         d="M 63 32.847656 L 313 32.847656 L 313 341.847656 L 63 341.847656 Z M 63 32.847656 "
         id="path1850" />
    </clipPath>
    <filter
       id="alpha"
       filterUnits="objectBoundingBox"
       x="0"
       y="0"
       width="1"
       height="1">
      <feColorMatrix
         type="matrix"
         in="SourceGraphic"
         values="0 0 0 0 1 0 0 0 0 1 0 0 0 0 1 0 0 0 1 0"
         id="feColorMatrix1853" />
    </filter>
    <mask
       id="mask0">
      <g
         filter="url(#alpha)"
         id="g1858">
        <rect
           x="0"
           y="0"
           width="375"
           height="374.999991"
           style="fill:rgb(0%,0%,0%);fill-opacity:0.498;stroke:none;"
           id="rect1856" />
      </g>
    </mask>
    <clipPath
       id="clip2">
      <rect
         x="0"
         y="0"
         width="219"
         height="157"
         id="rect1861" />
    </clipPath>
    <g
       id="surface5"
       clip-path="url(#clip2)">
      <path
         style=" stroke:none;fill-rule:nonzero;fill:rgb(0%,0%,0%);fill-opacity:1;"
         d="M 47.476562 10.488281 C 48.289062 11.414062 49.085938 12.375 49.847656 13.382812 C 49.023438 12.449219 48.238281 11.480469 47.476562 10.488281 Z M 58.488281 18.371094 C 60.148438 16.859375 61.734375 15.542969 62.984375 14.546875 C 62.378906 13.179688 61.335938 11.019531 59.824219 8.484375 C 55.402344 5.121094 50.292969 2.515625 45 1.300781 C 49.917969 5.609375 55.113281 11.347656 58.488281 18.371094 Z M 54.863281 21.902344 C 54.363281 20.730469 53.800781 19.59375 53.1875 18.488281 C 51.019531 17.882812 48.816406 17.277344 46.59375 16.746094 C 46.71875 17.007812 46.84375 17.265625 46.964844 17.515625 C 47.09375 17.835938 47.210938 18.148438 47.320312 18.449219 C 47.535156 19.054688 47.734375 19.601562 47.867188 20.105469 C 47.988281 20.613281 48.070312 21.0625 48.140625 21.425781 C 48.277344 22.15625 48.320312 22.578125 48.320312 22.578125 C 48.320312 22.578125 48.035156 22.246094 47.597656 21.660156 C 47.382812 21.363281 47.113281 21.011719 46.832031 20.601562 C 46.53125 20.207031 46.1875 19.765625 45.808594 19.277344 C 45.628906 19.035156 45.441406 18.785156 45.25 18.523438 C 45.042969 18.273438 44.828125 18.015625 44.605469 17.75 C 44.179688 17.210938 43.742188 16.640625 43.238281 16.089844 C 43.21875 16.066406 43.199219 16.039062 43.175781 16.015625 C 40.984375 15.597656 38.78125 15.292969 36.574219 15.179688 C 40.9375 19.445312 45.476562 24.867188 48.808594 31.28125 C 49.441406 28.339844 51.960938 24.96875 54.863281 21.902344 Z M 40.558594 40.410156 L 45.496094 35.328125 C 41.621094 26.960938 35.222656 20.164062 29.84375 15.492188 C 28.996094 15.613281 28.152344 15.761719 27.308594 15.921875 C 27.769531 16.042969 28.269531 16.21875 28.800781 16.449219 C 29.339844 16.683594 29.902344 16.976562 30.472656 17.324219 C 31.042969 17.671875 31.625 18.066406 32.1875 18.519531 C 32.476562 18.734375 32.753906 18.972656 33.027344 19.21875 C 33.3125 19.460938 33.582031 19.714844 33.851562 19.980469 C 34.394531 20.5 34.902344 21.066406 35.402344 21.632812 C 35.882812 22.21875 36.363281 22.804688 36.789062 23.414062 C 37.226562 24.011719 37.621094 24.625 37.988281 25.226562 C 38.722656 26.429688 39.308594 27.609375 39.746094 28.652344 C 40.183594 29.691406 40.476562 30.59375 40.648438 31.238281 C 40.824219 31.878906 40.882812 32.265625 40.882812 32.265625 C 40.882812 32.265625 40.59375 32.003906 40.132812 31.53125 C 39.667969 31.0625 39.023438 30.390625 38.289062 29.570312 C 36.808594 27.933594 34.972656 25.71875 33.140625 23.558594 C 32.222656 22.476562 31.296875 21.417969 30.40625 20.449219 C 29.515625 19.480469 28.65625 18.609375 27.878906 17.894531 C 27.6875 17.703125 27.492188 17.546875 27.308594 17.386719 C 27.128906 17.21875 26.949219 17.070312 26.78125 16.9375 C 26.441406 16.65625 26.144531 16.421875 25.882812 16.234375 C 25.871094 16.226562 25.863281 16.222656 25.855469 16.214844 C 23.890625 16.625 21.9375 17.078125 19.972656 17.460938 L 40.429688 40.496094 C 40.472656 40.46875 40.515625 40.4375 40.558594 40.410156 Z M 175.71875 2.144531 C 170.066406 4.867188 163.546875 8.621094 158.15625 12.402344 C 157.738281 13.238281 157.402344 13.964844 157.144531 14.546875 C 158.664062 15.757812 160.679688 17.445312 162.722656 19.375 C 165.867188 12.355469 170.859375 6.5625 175.71875 2.144531 Z M 174.121094 19.515625 C 173.929688 19.773438 173.742188 20.027344 173.5625 20.269531 C 173.1875 20.753906 172.839844 21.199219 172.535156 21.59375 C 172.257812 22.003906 171.988281 22.355469 171.773438 22.648438 C 171.335938 23.238281 171.050781 23.570312 171.050781 23.570312 C 171.050781 23.570312 171.09375 23.148438 171.230469 22.417969 C 171.300781 22.050781 171.382812 21.605469 171.5 21.09375 C 171.636719 20.59375 171.835938 20.046875 172.050781 19.441406 C 172.160156 19.140625 172.277344 18.824219 172.40625 18.503906 C 172.554688 18.195312 172.710938 17.875 172.871094 17.542969 C 173.199219 16.886719 173.550781 16.191406 174 15.527344 C 174.113281 15.351562 174.234375 15.175781 174.347656 14.996094 C 173.050781 15.160156 171.75 15.269531 170.449219 15.3125 C 168.816406 17.707031 167.398438 20.296875 166.332031 23.070312 C 169.011719 26.085938 171.167969 29.300781 171.449219 32.050781 L 172.128906 32.753906 C 176.535156 23.542969 183.53125 16.257812 189.273438 11.367188 C 185.804688 12.464844 182.234375 13.53125 178.617188 14.28125 L 178.417969 14.484375 C 178.164062 14.78125 177.898438 15.070312 177.636719 15.359375 C 177.382812 15.652344 177.105469 15.921875 176.863281 16.214844 C 176.617188 16.507812 176.378906 16.800781 176.132812 17.078125 C 175.628906 17.632812 175.195312 18.203125 174.765625 18.738281 C 174.542969 19.003906 174.328125 19.261719 174.121094 19.515625 Z M 198.503906 10.261719 L 202.183594 15.175781 L 179.675781 40.519531 L 175.691406 36.417969 C 181.265625 23.429688 193.097656 14.046875 198.503906 10.261719 Z M 188.164062 19.980469 C 187.621094 20.5 187.113281 21.066406 186.613281 21.636719 C 186.132812 22.21875 185.652344 22.808594 185.226562 23.414062 C 184.789062 24.015625 184.394531 24.625 184.027344 25.230469 C 183.292969 26.433594 182.707031 27.613281 182.269531 28.652344 C 181.832031 29.691406 181.539062 30.59375 181.367188 31.238281 C 181.191406 31.882812 181.132812 32.265625 181.132812 32.265625 C 181.132812 32.265625 181.421875 32.003906 181.882812 31.535156 C 182.347656 31.066406 182.992188 30.390625 183.730469 29.570312 C 185.207031 27.9375 187.042969 25.71875 188.878906 23.558594 C 189.792969 22.480469 190.71875 21.417969 191.609375 20.453125 C 192.5 19.484375 193.359375 18.609375 194.136719 17.894531 C 194.328125 17.707031 194.523438 17.546875 194.707031 17.386719 C 194.886719 17.222656 195.066406 17.074219 195.234375 16.9375 C 195.574219 16.65625 195.871094 16.425781 196.132812 16.234375 C 196.390625 16.039062 196.621094 15.898438 196.765625 15.796875 C 196.914062 15.691406 196.992188 15.636719 196.992188 15.636719 C 196.992188 15.636719 196.894531 15.636719 196.714844 15.636719 C 196.535156 15.652344 196.273438 15.621094 195.9375 15.683594 C 195.601562 15.730469 195.175781 15.789062 194.722656 15.921875 C 194.257812 16.039062 193.75 16.222656 193.214844 16.453125 C 192.675781 16.6875 192.113281 16.980469 191.542969 17.328125 C 190.972656 17.671875 190.390625 18.070312 189.828125 18.519531 C 189.539062 18.738281 189.261719 18.976562 188.988281 19.222656 C 188.703125 19.460938 188.433594 19.71875 188.164062 19.980469 Z M 16.546875 75.285156 C 15.132812 76.816406 13.386719 78.234375 11.296875 78.679688 C 10.789062 78.789062 10.285156 78.847656 9.785156 78.863281 C 12.722656 85.066406 16.992188 91.683594 21.910156 93.285156 L 29.636719 69.433594 C 27.304688 68.578125 25.1875 67.222656 23.304688 65.609375 C 20.902344 68.714844 19.226562 72.382812 16.546875 75.285156 Z M 37.691406 44.574219 L 35.484375 42.089844 C 34.777344 42.667969 34.1875 43.40625 33.5625 44.0625 C 29.546875 48.273438 24.933594 51.390625 19.929688 54.121094 C 22.355469 58.082031 26.222656 63.0625 31.101562 64.914062 L 34.347656 54.898438 L 34.070312 54.199219 C 34.128906 54.175781 34.328125 54.097656 34.640625 53.988281 Z M 1.933594 98.535156 C 1.710938 98.523438 1.488281 98.503906 1.261719 98.480469 C 4.242188 105.964844 11.628906 111.027344 15.449219 113.234375 L 20.449219 97.796875 C 18.347656 97.113281 16.410156 95.882812 14.644531 94.300781 C 10.992188 97.058594 6.589844 98.808594 1.933594 98.535156 Z M 210.46875 81.679688 C 207.988281 81.335938 205.648438 80.242188 203.628906 78.703125 C 200.875 76.605469 198.078125 73.863281 196.492188 70.75 C 195.976562 69.734375 195.625 68.707031 195.558594 67.6875 C 194.035156 68.648438 192.390625 69.40625 190.632812 69.875 L 198.316406 93.597656 C 203.085938 93.050781 207.328125 87.550781 210.46875 81.679688 Z M 199.417969 57.53125 C 196.40625 56.855469 193.664062 55.46875 191.1875 53.453125 C 188.367188 51.15625 185.867188 48.496094 182.988281 46.28125 L 189.164062 65.34375 C 193.3125 64.339844 196.808594 60.980469 199.417969 57.53125 Z M 205.792969 95.324219 C 203.960938 96.730469 201.960938 97.746094 199.796875 98.175781 L 204.675781 113.234375 C 208.050781 111.28125 214.214844 107.101562 217.65625 100.988281 C 213.234375 100.335938 208.933594 98.285156 205.792969 95.324219 Z M 140.320312 121.554688 L 151.648438 140.492188 C 145.664062 144.261719 126.347656 155.507812 109.203125 155.507812 C 92.148438 155.507812 74.0625 144.328125 68.445312 140.554688 L 79.808594 121.554688 C 85.058594 128.910156 87.375 129.210938 88.570312 129.359375 C 92.738281 129.875 96.300781 129.296875 100.074219 128.683594 C 102.898438 128.222656 105.816406 127.75 109.125 127.75 C 112.398438 127.75 115.675781 128.214844 118.839844 128.664062 C 122.039062 129.121094 125.109375 129.558594 128.164062 129.558594 C 129.296875 129.558594 130.425781 129.5 131.558594 129.359375 C 132.75 129.207031 135.066406 128.910156 140.320312 121.554688 Z M 122.25 134.425781 C 112.4375 127.296875 97.871094 134.425781 97.871094 134.425781 L 110.089844 150.660156 Z M 156.882812 80.324219 C 156.539062 81.261719 155.925781 82.707031 155.121094 84.507812 C 146.144531 88.386719 137.140625 82.53125 131.339844 77.71875 C 131.875 73.519531 128.734375 70.664062 125.941406 68.132812 C 123.085938 65.542969 120.386719 63.097656 120.386719 59.25 L 115.628906 59.25 C 115.628906 59.355469 115.640625 59.453125 115.640625 59.554688 C 114.53125 59.414062 112.382812 59.164062 110.058594 59.015625 C 107.742188 59.164062 105.597656 59.414062 104.484375 59.554688 C 104.488281 59.453125 104.496094 59.355469 104.496094 59.25 L 99.738281 59.25 C 99.738281 63.097656 97.039062 65.542969 94.183594 68.132812 C 91.390625 70.664062 88.253906 73.519531 88.785156 77.714844 C 82.988281 82.53125 73.984375 88.386719 65.003906 84.507812 C 64.199219 82.710938 63.589844 81.261719 63.242188 80.324219 C 61.273438 75 59.640625 52.011719 59.03125 41.183594 C 60.765625 41.796875 62.714844 42.386719 64.875 42.953125 L 65.511719 54.699219 C 65.511719 54.699219 76.113281 62.945312 82.570312 63.21875 C 88.445312 63.464844 99.683594 55.757812 102.792969 47.804688 C 104.917969 47.863281 107.054688 47.898438 109.199219 47.898438 C 111.890625 47.898438 114.601562 47.847656 117.308594 47.746094 C 120.390625 55.722656 131.667969 63.464844 137.550781 63.21875 C 144.011719 62.945312 154.609375 54.699219 154.609375 54.699219 L 155.257812 42.769531 C 157.503906 42.191406 159.441406 41.609375 161.097656 41.035156 C 160.5 51.800781 158.859375 74.976562 156.882812 80.324219 Z M 85.683594 69.457031 C 79.839844 77.652344 66.355469 73.253906 66.355469 73.253906 C 66.355469 73.253906 68.734375 78.335938 75.027344 78.808594 C 81.316406 79.28125 84.253906 75.828125 85.683594 69.457031 Z M 89.28125 65.777344 C 89.28125 65.777344 88.78125 65.777344 87.972656 65.839844 C 87.566406 65.867188 87.089844 65.917969 86.554688 65.988281 C 86.425781 66.007812 86.289062 66.027344 86.148438 66.046875 C 86.003906 66.0625 85.855469 66.0625 85.707031 66.070312 C 85.410156 66.089844 85.097656 66.109375 84.769531 66.132812 C 84.453125 66.160156 84.125 66.191406 83.78125 66.226562 C 83.449219 66.273438 83.097656 66.285156 82.738281 66.285156 C 82.378906 66.289062 82.015625 66.316406 81.648438 66.332031 C 81.277344 66.335938 80.910156 66.40625 80.527344 66.371094 C 79.765625 66.332031 78.996094 66.398438 78.214844 66.34375 C 77.433594 66.257812 76.640625 66.316406 75.855469 66.171875 C 75.460938 66.136719 75.066406 66.101562 74.671875 66.0625 C 74.28125 66.003906 73.894531 65.941406 73.503906 65.882812 C 72.722656 65.796875 71.96875 65.601562 71.214844 65.484375 C 70.835938 65.425781 70.484375 65.300781 70.117188 65.238281 C 69.753906 65.15625 69.390625 65.089844 69.046875 64.992188 C 68.355469 64.8125 67.683594 64.660156 67.070312 64.476562 C 66.4375 64.324219 65.875 64.136719 65.347656 64 C 64.824219 63.84375 64.367188 63.707031 63.988281 63.59375 C 63.203125 63.359375 62.753906 63.222656 62.753906 63.222656 C 62.753906 63.222656 62.800781 63.335938 62.910156 63.53125 C 63.019531 63.726562 63.183594 64.019531 63.421875 64.359375 C 63.65625 64.707031 63.976562 65.09375 64.359375 65.535156 C 64.753906 65.949219 65.203125 66.433594 65.753906 66.882812 C 66.027344 67.113281 66.3125 67.355469 66.625 67.582031 C 66.9375 67.808594 67.269531 68.023438 67.613281 68.253906 C 67.949219 68.5 68.332031 68.671875 68.707031 68.886719 C 69.089844 69.089844 69.480469 69.304688 69.898438 69.472656 C 70.3125 69.652344 70.746094 69.8125 71.183594 69.976562 C 71.613281 70.15625 72.074219 70.269531 72.539062 70.382812 C 73.003906 70.492188 73.46875 70.636719 73.945312 70.714844 C 74.425781 70.777344 74.910156 70.839844 75.390625 70.902344 C 76.359375 71.035156 77.339844 70.980469 78.296875 70.953125 C 78.773438 70.960938 79.246094 70.875 79.707031 70.792969 C 80.171875 70.71875 80.625 70.644531 81.070312 70.550781 C 81.515625 70.476562 81.941406 70.335938 82.351562 70.191406 C 82.761719 70.046875 83.164062 69.917969 83.550781 69.769531 C 84.332031 69.519531 85 69.089844 85.625 68.753906 C 86.234375 68.378906 86.804688 68.089844 87.242188 67.695312 C 87.691406 67.324219 88.070312 66.992188 88.371094 66.707031 C 88.972656 66.132812 89.28125 65.777344 89.28125 65.777344 Z M 152.328125 74.550781 C 152.328125 74.550781 138.847656 78.949219 133.003906 70.753906 C 134.429688 77.125 137.367188 80.578125 143.660156 80.105469 C 149.953125 79.632812 152.328125 74.550781 152.328125 74.550781 Z M 156.695312 64.355469 C 156.9375 64.019531 157.097656 63.726562 157.210938 63.53125 C 157.320312 63.335938 157.363281 63.222656 157.363281 63.222656 C 157.363281 63.222656 156.914062 63.359375 156.128906 63.59375 C 155.753906 63.703125 155.296875 63.839844 154.769531 63.996094 C 154.242188 64.136719 153.683594 64.324219 153.050781 64.476562 C 152.4375 64.660156 151.765625 64.8125 151.070312 64.992188 C 150.730469 65.085938 150.367188 65.15625 150.003906 65.234375 C 149.636719 65.300781 149.285156 65.425781 148.90625 65.480469 C 148.148438 65.597656 147.398438 65.792969 146.613281 65.882812 C 146.226562 65.941406 145.839844 66 145.445312 66.0625 C 145.054688 66.097656 144.660156 66.132812 144.265625 66.171875 C 143.480469 66.3125 142.6875 66.257812 141.90625 66.339844 C 141.125 66.398438 140.355469 66.328125 139.59375 66.371094 C 139.210938 66.40625 138.84375 66.335938 138.472656 66.328125 C 138.105469 66.3125 137.742188 66.289062 137.382812 66.28125 C 137.023438 66.285156 136.671875 66.273438 136.335938 66.222656 C 135.996094 66.191406 135.664062 66.160156 135.347656 66.128906 C 135.023438 66.109375 134.710938 66.085938 134.414062 66.070312 C 134.261719 66.058594 134.113281 66.058594 133.972656 66.042969 C 133.832031 66.023438 133.695312 66.003906 133.5625 65.988281 C 133.03125 65.917969 132.550781 65.867188 132.148438 65.835938 C 131.339844 65.777344 130.839844 65.773438 130.839844 65.773438 C 130.839844 65.773438 131.148438 66.132812 131.746094 66.703125 C 132.050781 66.988281 132.429688 67.320312 132.875 67.691406 C 133.3125 68.085938 133.886719 68.375 134.496094 68.75 C 135.121094 69.085938 135.789062 69.515625 136.570312 69.765625 C 136.953125 69.914062 137.355469 70.042969 137.769531 70.1875 C 138.179688 70.332031 138.605469 70.476562 139.050781 70.546875 C 139.492188 70.640625 139.949219 70.714844 140.414062 70.789062 C 140.875 70.871094 141.34375 70.957031 141.824219 70.949219 C 142.78125 70.976562 143.761719 71.03125 144.726562 70.898438 C 145.210938 70.835938 145.695312 70.773438 146.175781 70.714844 C 146.652344 70.632812 147.117188 70.488281 147.582031 70.378906 C 148.042969 70.265625 148.503906 70.152344 148.9375 69.972656 C 149.375 69.808594 149.804688 69.648438 150.222656 69.472656 C 150.636719 69.300781 151.027344 69.085938 151.410156 68.882812 C 151.789062 68.667969 152.171875 68.496094 152.507812 68.253906 C 152.847656 68.019531 153.183594 67.804688 153.496094 67.578125 C 153.804688 67.355469 154.089844 67.109375 154.363281 66.882812 C 154.914062 66.433594 155.367188 65.949219 155.761719 65.53125 C 156.144531 65.09375 156.460938 64.707031 156.695312 64.355469 Z M 55.453125 58.328125 C 49.152344 55.683594 42.097656 56.863281 38.398438 57.824219 L 37.277344 61.292969 C 39.421875 62.203125 41.296875 63.648438 42.960938 65.277344 C 45.328125 67.601562 47.554688 70.109375 49.636719 72.691406 C 50.042969 73.195312 50.445312 73.703125 50.839844 74.21875 C 53.015625 74.332031 55.191406 74.59375 57.28125 75.070312 C 56.554688 70.324219 55.941406 64.183594 55.453125 58.328125 Z M 58.269531 80.261719 C 57.070312 79.871094 55.808594 79.578125 54.519531 79.367188 C 57.1875 83.441406 59.484375 87.8125 61.101562 92.382812 C 61.976562 92.527344 62.828125 92.683594 63.648438 92.84375 C 61.28125 87.941406 59.503906 83.921875 58.78125 81.96875 C 58.605469 81.496094 58.433594 80.921875 58.269531 80.261719 Z M 50.726562 36.769531 L 42.464844 45.269531 L 40.101562 52.570312 C 44.105469 51.832031 49.605469 51.460938 55.046875 53.132812 C 54.503906 45.785156 54.195312 39.84375 54.167969 39.261719 L 54.449219 39.25 C 52.894531 38.457031 51.65625 37.628906 50.726562 36.769531 Z M 180.015625 52.539062 L 177.660156 45.269531 L 169.417969 36.785156 C 168.558594 37.539062 167.316406 38.371094 165.519531 39.238281 L 165.957031 39.261719 C 165.929688 39.847656 165.621094 45.8125 165.074219 53.183594 C 170.492188 51.476562 175.984375 51.816406 180.015625 52.539062 Z M 161.347656 81.972656 C 160.625 83.921875 158.847656 87.9375 156.480469 92.839844 C 157.765625 92.585938 159.109375 92.355469 160.5 92.148438 C 163.304688 87.488281 166.84375 83.191406 170.152344 78.941406 C 167.269531 79.054688 164.414062 79.460938 161.839844 80.324219 C 161.679688 80.960938 161.515625 81.511719 161.347656 81.972656 Z M 164.667969 58.398438 C 164.179688 64.25 163.5625 70.378906 162.839844 75.109375 C 166.472656 74.261719 170.359375 74.054688 174.078125 74.195312 C 176.777344 71.234375 179.769531 68.507812 182.910156 66.070312 C 183.296875 65.769531 183.695312 65.464844 184.105469 65.164062 L 181.714844 57.777344 C 177.933594 56.816406 170.910156 55.703125 164.667969 58.398438 Z M 164.667969 58.398438 "
         id="path1864" />
    </g>
    <mask
       id="mask1">
      <g
         filter="url(#alpha)"
         id="g1869">
        <rect
           x="0"
           y="0"
           width="375"
           height="374.999991"
           style="fill:rgb(0%,0%,0%);fill-opacity:0.498;stroke:none;"
           id="rect1867" />
      </g>
    </mask>
    <clipPath
       id="clip4">
      <path
         d="M 1 0.0390625 L 96 0.0390625 L 96 22.601562 L 1 22.601562 Z M 1 0.0390625 "
         id="path1872" />
    </clipPath>
    <clipPath
       id="clip3">
      <rect
         x="0"
         y="0"
         width="97"
         height="23"
         id="rect1875" />
    </clipPath>
    <g
       id="surface8"
       clip-path="url(#clip3)">
      <g
         clip-path="url(#clip4)"
         clip-rule="nonzero"
         id="g1880">
        <path
           style=" stroke:none;fill-rule:nonzero;fill:rgb(0%,0%,0%);fill-opacity:1;"
           d="M 76.734375 12.46875 C 77.085938 14.042969 77.402344 15.613281 77.679688 17.167969 C 68.632812 20.035156 59.105469 21.679688 49.582031 22.003906 L 49.582031 17.136719 C 49.886719 17.140625 50.1875 17.148438 50.492188 17.148438 C 59.804688 17.148438 68.675781 15.476562 76.734375 12.46875 Z M 93.433594 4.441406 C 93.300781 4.214844 93.164062 4 93.03125 3.777344 C 89.402344 6.402344 85.445312 8.695312 81.226562 10.609375 C 81.617188 12.28125 81.964844 13.949219 82.273438 15.59375 C 86.964844 13.863281 91.542969 11.789062 95.871094 9.285156 C 95.175781 7.6875 94.371094 6.0625 93.433594 4.441406 Z M 18.46875 16.96875 C 24.46875 19.523438 30.835938 21.125 37.375 21.699219 C 39.847656 21.914062 42.332031 22.03125 44.820312 22.0625 L 44.820312 16.9375 C 35.867188 16.277344 27.410156 14.074219 19.808594 10.632812 C 19.292969 12.753906 18.847656 14.878906 18.46875 16.96875 Z M 1.015625 6.046875 C 4.46875 8.910156 8.101562 11.546875 11.996094 13.765625 C 12.652344 14.140625 13.320312 14.5 13.988281 14.847656 C 14.398438 12.738281 14.875 10.597656 15.429688 8.460938 C 11.328125 6.25 7.527344 3.660156 4.085938 0.75 C 2.898438 2.496094 1.882812 4.277344 1.015625 6.046875 Z M 1.015625 6.046875 "
           id="path1878" />
      </g>
    </g>
  </defs>
  <g
     id="surface1">
    <g
       clip-path="url(#clip1)"
       clip-rule="nonzero"
       id="g1891">
      <path
         style=" stroke:none;fill-rule:nonzero;fill:rgb(100%,100%,100%);fill-opacity:1;"
         d="M 312.410156 261.386719 C 311.417969 240.148438 291.59375 212.023438 285.058594 203.296875 L 298.691406 187.945312 L 265.546875 143.714844 L 257.367188 146.414062 C 254.925781 147.21875 252.53125 148.222656 250.210938 149.414062 C 249.742188 148.191406 249.242188 146.988281 248.707031 145.804688 C 260.296875 133.695312 266.644531 118.390625 266.644531 102.410156 C 266.644531 86.046875 259.945312 70.285156 247.792969 58.03125 C 247.792969 58.03125 257.171875 69.851562 247.628906 57.863281 C 238.082031 45.871094 216.578125 32.871094 216.578125 32.871094 L 228.101562 70.726562 L 228.226562 71.054688 C 232.058594 80.207031 230.886719 98.050781 222.3125 110.910156 C 221.070312 112.773438 219.6875 114.496094 218.179688 116.058594 C 209.164062 112.261719 198.757812 110.339844 187.199219 110.339844 C 177.65625 110.339844 168.914062 111.648438 161.160156 114.226562 C 160.277344 113.175781 159.441406 112.066406 158.671875 110.910156 C 148.695312 95.941406 150.882812 78.914062 153.074219 70.097656 C 155.941406 58.582031 158.207031 54.292969 158.410156 53.917969 L 167.242188 40.125 C 167.242188 40.125 156.738281 41.742188 150.480469 45.109375 C 144.222656 48.480469 141.859375 48.066406 132.910156 58.332031 C 123.933594 68.628906 114.34375 85.613281 114.34375 102.40625 C 114.34375 116.4375 119.398438 130.269531 128.636719 141.65625 C 127.394531 144.050781 126.304688 146.550781 125.378906 149.140625 C 123.226562 148.066406 121.011719 147.15625 118.761719 146.414062 L 110.578125 143.710938 L 77.433594 187.945312 L 90.996094 203.214844 C 80.054688 217.460938 65.179688 244.21875 63.730469 261.128906 C 61.558594 286.484375 88.761719 299.039062 89.925781 299.5625 L 102.117188 305.046875 L 111.199219 277.019531 C 112.710938 276.953125 114.324219 276.917969 115.96875 276.917969 C 123.550781 276.917969 131.742188 277.601562 137.894531 278.722656 C 138.898438 280.636719 139.898438 282.496094 140.871094 284.261719 C 141.828125 285.996094 142.769531 287.652344 143.679688 289.214844 L 127.425781 316.398438 L 136.128906 322.847656 C 137.175781 323.621094 162.0625 341.84375 187.203125 341.84375 C 212.097656 341.84375 238.542969 323.855469 239.65625 323.089844 L 248.898438 316.730469 L 232.445312 289.214844 C 233.355469 287.65625 234.296875 286 235.253906 284.265625 C 236.234375 282.488281 237.230469 280.632812 238.230469 278.726562 C 244.328125 277.621094 252.527344 276.953125 260.175781 276.953125 C 261.824219 276.953125 263.433594 276.984375 264.9375 277.046875 L 274.007812 305.046875 L 286.238281 299.546875 C 290.8125 297.515625 313.570312 286.121094 312.410156 261.386719 Z M 312.410156 261.386719 "
         id="path1889" />
    </g>
    <path
       style=" stroke:none;fill-rule:nonzero;fill:rgb(14.118958%,9.799194%,9.799194%);fill-opacity:1;"
       d="M 220.625 153.75 L 220.507812 153.257812 L 220.96875 153.046875 C 225.125 151.164062 229.0625 148.886719 232.671875 146.277344 L 233.214844 145.882812 L 233.695312 146.679688 C 233.789062 146.828125 233.878906 146.976562 233.96875 147.128906 C 234.859375 148.664062 235.691406 150.316406 236.441406 152.035156 C 239.851562 159.871094 240.582031 166.945312 240.734375 169.625 L 240.75 169.871094 L 240.589844 170.058594 C 235.570312 175.976562 232.625 181.917969 231.316406 184.933594 L 231.128906 185.363281 L 230.664062 185.300781 C 229.363281 185.121094 227.238281 184.839844 224.511719 184.515625 L 223.96875 184.449219 L 223.96875 183.902344 C 223.960938 180.011719 223.730469 169.765625 221.664062 158.707031 C 221.351562 157.027344 221 155.359375 220.625 153.75 Z M 242.164062 198.898438 L 241.722656 199.121094 C 235.546875 202.269531 217.550781 209.589844 183.898438 209.589844 C 151.664062 209.589844 138.414062 202.527344 134.210938 199.492188 L 133.734375 199.148438 L 133.367188 199.605469 C 131.472656 201.949219 130.632812 203.644531 130.792969 204.777344 L 130.800781 204.828125 L 130.8125 204.878906 C 131.199219 206.078125 135.203125 209.082031 147.632812 211.855469 C 158.921875 214.375 172.972656 215.761719 187.199219 215.761719 C 201.425781 215.761719 215.714844 214.386719 227.4375 211.890625 C 240.535156 209.101562 244.855469 206.066406 245.3125 204.851562 L 245.335938 204.785156 L 245.34375 204.71875 C 245.503906 203.570312 244.566406 201.792969 242.476562 199.277344 Z M 219.746094 183.972656 L 220.441406 184.046875 L 220.433594 183.351562 C 220.382812 178.855469 220.039062 169.847656 218.289062 160.0625 C 218 158.445312 217.679688 156.855469 217.335938 155.332031 L 217.179688 154.640625 L 216.515625 154.886719 C 208.273438 157.96875 199.519531 159.53125 190.492188 159.53125 C 190.277344 159.53125 190.0625 159.527344 189.847656 159.523438 L 188.960938 159.515625 L 188.960938 181.960938 L 189.574219 181.96875 C 200.5 182.105469 212.011719 183.132812 219.746094 183.972656 Z M 101.707031 237.140625 C 97.832031 233.824219 94.960938 229.414062 93.234375 226.300781 L 92.710938 225.355469 L 92.160156 226.285156 C 89.015625 231.59375 86.132812 237.058594 83.824219 242.085938 L 83.722656 242.304688 L 83.796875 242.535156 C 84.308594 244.121094 85.433594 247.34375 87.222656 251.125 C 89.953125 256.886719 94.339844 264.121094 99.71875 265.871094 L 100.308594 266.0625 L 108.410156 241.058594 L 107.851562 240.851562 C 105.753906 240.085938 103.6875 238.835938 101.707031 237.140625 Z M 144.589844 188.96875 L 144.460938 189.070312 C 141.71875 191.203125 138.9375 193.667969 136.621094 196.007812 L 136.101562 196.535156 L 136.714844 196.953125 C 140.757812 199.695312 153.449219 206.078125 183.902344 206.078125 C 214.992188 206.078125 232.707031 199.433594 238.878906 196.574219 L 239.683594 196.203125 L 239.054688 195.578125 C 236.816406 193.347656 234.195312 191.039062 231.675781 189.078125 L 231.546875 188.976562 L 231.382812 188.953125 C 227.296875 188.371094 205.972656 185.46875 187.1875 185.46875 C 168.515625 185.46875 148.558594 188.363281 144.75 188.945312 Z M 155.679688 183.964844 L 156.375 183.886719 C 163.511719 183.082031 174.242188 182.097656 184.832031 181.96875 L 185.441406 181.960938 L 185.441406 159.363281 L 184.867188 159.320312 C 176.15625 158.679688 167.808594 156.578125 160.066406 153.070312 L 159.386719 152.761719 L 159.210938 153.488281 C 158.710938 155.523438 158.257812 157.667969 157.859375 159.859375 C 156.089844 169.667969 155.738281 178.734375 155.6875 183.265625 Z M 211.878906 132.171875 L 212.175781 132.613281 L 212.65625 132.386719 C 213.605469 131.9375 214.566406 131.441406 215.507812 130.910156 L 216.527344 130.335938 L 215.476562 129.816406 C 213.660156 128.925781 211.703125 128.121094 209.667969 127.421875 L 207.480469 126.675781 L 209 128.414062 C 210.003906 129.5625 210.972656 130.824219 211.878906 132.171875 Z M 168.867188 131.785156 L 168.367188 132.40625 L 169.097656 132.734375 C 173.855469 134.863281 179.125 136.214844 184.765625 136.742188 L 185.441406 136.808594 L 185.441406 124.085938 L 184.804688 124.101562 C 182.300781 124.167969 179.875 124.339844 177.59375 124.609375 L 176.742188 124.757812 L 176.859375 124.996094 C 173.921875 126.550781 171.234375 128.832031 168.867188 131.785156 Z M 190.492188 137.011719 C 196.820312 137.007812 202.738281 136.074219 208.085938 134.238281 L 208.871094 133.96875 L 208.390625 133.292969 C 205.71875 129.550781 202.597656 126.738281 199.121094 124.933594 L 199.03125 124.886719 L 198.925781 124.871094 C 195.992188 124.441406 192.855469 124.179688 189.597656 124.09375 L 188.960938 124.078125 L 188.960938 136.988281 L 189.902344 137 C 190.097656 137.003906 190.292969 137.011719 190.492188 137.011719 Z M 164.75 130.492188 L 165.222656 130.769531 L 165.558594 130.332031 C 166.269531 129.394531 166.996094 128.523438 167.714844 127.746094 L 169.246094 126.085938 L 167.082031 126.734375 C 165.742188 127.132812 164.378906 127.609375 162.921875 128.1875 L 161.820312 128.621094 L 162.808594 129.273438 C 163.441406 129.695312 164.09375 130.101562 164.75 130.492188 Z M 93.058594 265.839844 C 88.023438 261.324219 84.390625 253.941406 82.234375 248.542969 L 81.648438 247.082031 L 81.082031 248.546875 C 78.964844 254.007812 77.730469 258.636719 77.417969 262.300781 C 77.175781 265.152344 77.601562 267.980469 78.6875 270.710938 C 81.703125 278.292969 89.039062 283.398438 93.140625 285.765625 L 93.804688 286.148438 L 99.230469 269.402344 L 98.640625 269.210938 C 96.742188 268.589844 94.859375 267.457031 93.058594 265.839844 Z M 106.449219 206.234375 C 103.371094 209.402344 99.226562 214.972656 95.074219 221.523438 L 94.890625 221.8125 L 95.039062 222.121094 C 95.519531 223.117188 96.316406 224.671875 97.402344 226.445312 C 99.839844 230.421875 103.8125 235.566406 108.882812 237.492188 L 109.492188 237.722656 L 113.003906 226.878906 L 112.878906 226.5625 L 113.136719 226.46875 L 116.386719 216.425781 L 106.914062 205.757812 Z M 144.800781 184.921875 L 144.992188 185.355469 L 145.457031 185.285156 C 146.777344 185.09375 148.914062 184.792969 151.609375 184.453125 L 152.152344 184.386719 L 152.152344 183.839844 C 152.160156 178.847656 152.492188 168.847656 154.597656 157.964844 C 155.019531 155.789062 155.5 153.652344 156.027344 151.617188 L 156.148438 151.148438 L 155.722656 150.917969 C 151.683594 148.738281 147.902344 146.167969 144.484375 143.28125 L 143.960938 142.835938 L 143.574219 143.40625 C 142.421875 145.097656 141.375 146.90625 140.460938 148.773438 C 135.941406 158.011719 135.410156 167.054688 135.355469 169.609375 L 135.351562 169.839844 L 135.503906 170.019531 C 140.53125 175.941406 143.488281 181.894531 144.800781 184.921875 Z M 298.707031 262.300781 C 298.433594 259.089844 297.449219 255.121094 295.78125 250.507812 L 295.25 249.039062 L 294.632812 250.476562 C 292.351562 255.757812 288.554688 262.886719 283.414062 266.835938 C 281.554688 268.265625 279.625 269.183594 277.679688 269.566406 L 276.996094 269.703125 L 282.324219 286.152344 L 282.988281 285.765625 C 286.410156 283.789062 292.679688 279.539062 296.199219 273.292969 C 298.1875 269.761719 299.03125 266.0625 298.707031 262.300781 Z M 122.589844 173.765625 C 128.585938 179.019531 133.074219 184.695312 135.929688 190.640625 L 136.289062 191.386719 L 136.90625 190.828125 C 138.300781 189.558594 139.800781 188.28125 141.371094 187.027344 L 141.742188 186.730469 L 141.550781 186.296875 C 140.941406 184.925781 139.894531 182.75 138.359375 180.171875 C 134.277344 173.324219 127.097656 164.269531 116.078125 160.023438 L 115.640625 159.855469 L 111.332031 165.609375 L 111.917969 165.960938 C 114.488281 167.507812 118.425781 170.117188 122.589844 173.765625 Z M 133.3125 194.324219 C 129.929688 197.902344 127.941406 200.964844 127.410156 203.410156 L 127.046875 205.089844 L 126.253906 203.566406 C 123.390625 198.046875 119.3125 192.683594 114.140625 187.621094 C 109.429688 183.023438 104.925781 179.78125 102.664062 178.257812 L 102.125 177.894531 L 109.203125 168.445312 L 109.679688 168.730469 C 113.222656 170.84375 120.046875 175.386719 125.9375 182.078125 C 126.804688 183.0625 127.609375 184.042969 128.339844 185.007812 C 129.613281 186.6875 130.75 188.429688 131.730469 190.191406 C 132.367188 191.339844 132.941406 192.515625 133.4375 193.664062 L 133.59375 194.035156 Z M 126.320312 194.578125 C 126.320312 194.578125 126.277344 194.160156 126.140625 193.425781 C 126.066406 193.058594 125.988281 192.613281 125.871094 192.101562 C 125.734375 191.601562 125.53125 191.058594 125.320312 190.453125 C 125.207031 190.148438 125.089844 189.832031 124.96875 189.511719 C 124.84375 189.265625 124.71875 189.003906 124.589844 188.746094 C 124.558594 188.683594 124.527344 188.621094 124.496094 188.554688 C 124.167969 187.894531 123.824219 187.203125 123.371094 186.539062 C 122.9375 185.859375 122.484375 185.160156 121.941406 184.519531 C 121.683594 184.1875 121.421875 183.851562 121.144531 183.523438 L 120.269531 182.589844 C 119.6875 181.960938 119.058594 181.386719 118.425781 180.835938 C 118.117188 180.550781 117.789062 180.292969 117.460938 180.046875 C 117.132812 179.796875 116.8125 179.550781 116.492188 179.316406 C 115.828125 178.871094 115.199219 178.433594 114.558594 178.074219 C 113.921875 177.710938 113.316406 177.382812 112.734375 177.117188 C 111.589844 176.566406 110.574219 176.226562 109.859375 176.023438 C 109.140625 175.8125 108.714844 175.757812 108.714844 175.757812 C 108.714844 175.757812 109.945312 176.875 111.789062 178.550781 C 112.246094 178.953125 112.730469 179.402344 113.234375 179.871094 C 113.757812 180.328125 114.269531 180.847656 114.828125 181.34375 C 115.351562 181.878906 115.925781 182.394531 116.472656 182.957031 C 117.015625 183.511719 117.597656 184.050781 118.125 184.644531 L 118.953125 185.496094 C 119.207031 185.792969 119.472656 186.078125 119.734375 186.367188 C 119.988281 186.664062 120.265625 186.933594 120.507812 187.226562 C 120.730469 187.496094 120.953125 187.757812 121.175781 188.015625 C 121.191406 188.042969 121.21875 188.066406 121.234375 188.089844 C 121.738281 188.640625 122.175781 189.214844 122.605469 189.746094 C 122.828125 190.011719 123.035156 190.273438 123.246094 190.527344 C 123.4375 190.785156 123.628906 191.039062 123.808594 191.28125 C 124.179688 191.769531 124.527344 192.207031 124.832031 192.601562 C 125.109375 193.015625 125.382812 193.367188 125.597656 193.660156 C 126.03125 194.246094 126.320312 194.578125 126.320312 194.578125 Z M 124.058594 207.066406 L 124.238281 207.457031 L 118.425781 213.433594 L 117.964844 212.902344 L 95.144531 187.207031 L 100.003906 180.726562 L 100.492188 181.050781 C 102.285156 182.257812 105.082031 184.273438 108.25 187.027344 C 113.234375 191.355469 120.015625 198.347656 124.058594 207.066406 Z M 118.886719 204.261719 C 118.886719 204.261719 118.824219 203.878906 118.648438 203.238281 C 118.476562 202.59375 118.1875 201.691406 117.746094 200.648438 C 117.308594 199.609375 116.71875 198.429688 115.988281 197.222656 C 115.625 196.625 115.230469 196.011719 114.789062 195.414062 C 114.363281 194.808594 113.886719 194.222656 113.402344 193.632812 C 112.902344 193.066406 112.394531 192.496094 111.851562 191.976562 C 111.585938 191.71875 111.3125 191.457031 111.027344 191.21875 C 110.753906 190.976562 110.476562 190.734375 110.1875 190.519531 C 109.621094 190.070312 109.042969 189.671875 108.472656 189.320312 C 107.902344 188.976562 107.339844 188.683594 106.800781 188.449219 C 106.269531 188.222656 105.769531 188.042969 105.3125 187.925781 C 105.304688 187.925781 105.296875 187.917969 105.292969 187.917969 C 104.839844 187.789062 104.414062 187.726562 104.078125 187.675781 C 103.746094 187.617188 103.480469 187.652344 103.300781 187.632812 C 103.121094 187.632812 103.019531 187.632812 103.019531 187.632812 C 103.019531 187.632812 103.101562 187.691406 103.25 187.792969 C 103.386719 187.894531 103.609375 188.03125 103.855469 188.214844 C 103.863281 188.222656 103.875 188.226562 103.882812 188.234375 C 104.140625 188.425781 104.4375 188.652344 104.777344 188.9375 C 104.953125 189.066406 105.132812 189.214844 105.3125 189.382812 C 105.488281 189.542969 105.6875 189.703125 105.878906 189.890625 C 106.660156 190.605469 107.511719 191.484375 108.402344 192.449219 C 109.296875 193.417969 110.222656 194.472656 111.140625 195.554688 C 112.96875 197.71875 114.808594 199.9375 116.285156 201.570312 C 117.023438 202.390625 117.667969 203.0625 118.136719 203.535156 C 118.59375 204.003906 118.886719 204.261719 118.886719 204.261719 Z M 234.578125 186.296875 L 234.386719 186.730469 L 234.757812 187.027344 C 236.125 188.121094 238.195312 189.835938 240.296875 191.824219 L 240.933594 192.421875 L 241.289062 191.628906 C 243.964844 185.644531 248.289062 179.914062 254.136719 174.601562 C 258.179688 170.929688 262.117188 168.226562 264.707031 166.605469 L 265.277344 166.246094 L 260.484375 159.855469 L 260.046875 160.023438 C 246.671875 165.175781 238.992188 177.335938 235.601562 184.125 C 235.226562 184.886719 234.878906 185.617188 234.578125 186.296875 Z M 250.6875 205.023438 L 250.304688 205.820312 L 248.855469 204.324219 L 248.832031 204.113281 C 248.597656 201.828125 246.933594 198.921875 243.871094 195.480469 L 243.621094 195.203125 L 243.753906 194.851562 C 244.765625 192.199219 246.179688 189.550781 247.933594 186.964844 C 253.832031 178.300781 262.363281 172.234375 266.921875 169.386719 L 267.40625 169.089844 L 274.519531 178.585938 L 273.996094 178.953125 C 271.875 180.429688 269.75 182.070312 267.679688 183.839844 C 262.402344 188.332031 255.167969 195.65625 250.6875 205.023438 Z M 262.132812 180.859375 C 262.640625 180.390625 263.125 179.941406 263.582031 179.539062 C 265.425781 177.863281 266.65625 176.75 266.65625 176.75 C 266.65625 176.75 266.222656 176.808594 265.511719 177.011719 C 264.796875 177.214844 263.78125 177.5625 262.636719 178.109375 C 262.054688 178.375 261.441406 178.699219 260.8125 179.0625 C 260.171875 179.421875 259.542969 179.859375 258.878906 180.304688 C 258.558594 180.539062 258.238281 180.785156 257.910156 181.039062 C 257.582031 181.289062 257.253906 181.539062 256.945312 181.824219 C 256.3125 182.382812 255.679688 182.949219 255.101562 183.578125 L 254.226562 184.519531 C 253.949219 184.839844 253.6875 185.179688 253.429688 185.507812 C 253.027344 185.984375 252.679688 186.492188 252.351562 186.996094 C 252.234375 187.175781 252.113281 187.347656 252 187.527344 C 251.546875 188.191406 251.203125 188.886719 250.875 189.542969 C 250.714844 189.871094 250.558594 190.191406 250.402344 190.507812 C 250.28125 190.828125 250.164062 191.136719 250.050781 191.441406 C 249.839844 192.046875 249.636719 192.597656 249.5 193.097656 C 249.382812 193.601562 249.300781 194.046875 249.226562 194.417969 C 249.09375 195.148438 249.050781 195.566406 249.050781 195.566406 C 249.050781 195.566406 249.339844 195.242188 249.773438 194.648438 C 249.988281 194.355469 250.253906 194.003906 250.539062 193.589844 C 250.84375 193.195312 251.191406 192.75 251.5625 192.269531 C 251.742188 192.027344 251.925781 191.773438 252.125 191.515625 C 252.328125 191.261719 252.542969 191.007812 252.761719 190.734375 C 253.195312 190.203125 253.628906 189.628906 254.132812 189.078125 C 254.375 188.800781 254.617188 188.511719 254.859375 188.214844 C 255.105469 187.925781 255.382812 187.652344 255.636719 187.355469 C 255.898438 187.070312 256.164062 186.78125 256.417969 186.484375 L 256.617188 186.28125 L 257.246094 185.632812 C 257.773438 185.042969 258.347656 184.507812 258.898438 183.945312 C 259.441406 183.382812 260.019531 182.875 260.542969 182.339844 C 261.101562 181.84375 261.613281 181.316406 262.132812 180.859375 Z M 276.640625 181.414062 L 276.152344 181.757812 C 271.128906 185.269531 258.828125 194.875 253.121094 208.175781 L 252.957031 208.550781 L 257.695312 213.429688 L 280.984375 187.207031 Z M 289.015625 253.972656 C 290.546875 251.109375 292.03125 247.75 293.199219 244.503906 L 293.28125 244.273438 L 293.183594 244.050781 C 290.921875 238.894531 288.003906 233.210938 284.75 227.617188 L 284.21875 226.703125 L 283.683594 227.609375 C 281.53125 231.234375 277.96875 236.183594 273.230469 239.164062 C 271.679688 240.136719 270.082031 240.851562 268.472656 241.277344 L 267.84375 241.445312 L 275.882812 266.269531 L 276.386719 266.210938 C 281.738281 265.597656 286.207031 259.214844 289.015625 253.972656 Z M 277.914062 229.902344 C 279.71875 227.519531 281.09375 225.109375 281.933594 223.503906 L 282.09375 223.191406 L 281.910156 222.894531 C 277.449219 215.71875 272.992188 209.648438 269.679688 206.234375 L 269.214844 205.757812 L 259.738281 216.429688 L 266.75 238.082031 L 267.308594 237.945312 C 270.976562 237.058594 274.546875 234.351562 277.914062 229.902344 Z M 218.367188 292.425781 L 230.488281 312.695312 L 229.980469 313.015625 C 224.34375 316.5625 204.613281 328.125 187.203125 328.125 C 169.859375 328.125 151.355469 316.601562 146.101562 313.066406 L 145.613281 312.742188 L 157.757812 292.425781 L 158.308594 293.199219 C 163.414062 300.339844 165.597656 300.613281 166.644531 300.742188 C 167.707031 300.878906 168.753906 300.941406 169.855469 300.941406 C 172.636719 300.941406 175.230469 300.519531 177.972656 300.070312 C 180.816406 299.605469 183.761719 299.128906 187.121094 299.128906 C 190.4375 299.128906 193.738281 299.601562 196.921875 300.050781 C 200.128906 300.507812 203.148438 300.941406 206.167969 300.941406 C 207.34375 300.941406 208.425781 300.875 209.484375 300.742188 C 210.527344 300.613281 212.710938 300.339844 217.816406 293.191406 Z M 200.25 306.421875 C 190.4375 299.296875 175.867188 306.421875 175.867188 306.421875 L 188.085938 322.65625 Z M 233.257812 214.769531 C 235.503906 214.1875 237.441406 213.605469 239.101562 213.03125 C 238.5 223.800781 236.859375 246.976562 234.886719 252.328125 C 234.539062 253.261719 233.929688 254.707031 233.125 256.503906 C 231.929688 259.175781 230.296875 262.621094 228.433594 266.347656 C 228.339844 266.378906 228.242188 266.410156 228.148438 266.433594 L 228.246094 266.730469 C 226.570312 270.082031 224.714844 273.644531 222.835938 277.070312 C 212.589844 295.6875 209.097656 296.617188 208.96875 296.640625 C 205.40625 297.085938 201.570312 296.542969 197.511719 295.960938 C 194.183594 295.484375 190.734375 294.996094 187.121094 294.996094 C 183.429688 294.996094 180.316406 295.503906 177.308594 295.992188 C 173.734375 296.570312 170.644531 297.074219 167.167969 296.644531 C 167.027344 296.617188 163.539062 295.6875 153.292969 277.070312 C 149.234375 269.691406 145.308594 261.652344 143.003906 256.511719 C 142.199219 254.710938 141.589844 253.261719 141.238281 252.328125 C 139.273438 247 137.636719 224.011719 137.03125 213.179688 C 138.765625 213.796875 140.714844 214.390625 142.878906 214.953125 L 143.515625 226.699219 C 143.515625 226.699219 154.113281 234.945312 160.574219 235.214844 C 166.445312 235.464844 177.679688 227.757812 180.792969 219.804688 C 182.921875 219.867188 185.054688 219.898438 187.203125 219.898438 C 189.894531 219.898438 192.605469 219.847656 195.308594 219.75 C 198.390625 227.71875 209.667969 235.464844 215.550781 235.214844 C 222.011719 234.945312 232.609375 226.699219 232.609375 226.699219 Z M 167.28125 237.773438 C 167.28125 237.773438 166.78125 237.78125 165.96875 237.835938 C 165.566406 237.867188 165.089844 237.921875 164.558594 237.992188 C 164.421875 238.007812 164.285156 238.027344 164.148438 238.046875 C 164.007812 238.066406 163.859375 238.066406 163.703125 238.070312 C 163.40625 238.089844 163.097656 238.113281 162.769531 238.132812 C 162.453125 238.164062 162.125 238.195312 161.78125 238.226562 C 161.453125 238.273438 161.097656 238.285156 160.734375 238.285156 C 160.375 238.285156 160.015625 238.316406 159.644531 238.332031 C 159.273438 238.335938 158.910156 238.410156 158.527344 238.375 C 157.765625 238.332031 156.996094 238.398438 156.210938 238.34375 C 155.433594 238.261719 154.640625 238.316406 153.855469 238.175781 C 153.464844 238.140625 153.070312 238.101562 152.671875 238.066406 C 152.28125 238.003906 151.894531 237.941406 151.503906 237.886719 C 150.722656 237.800781 149.96875 237.601562 149.214844 237.484375 C 148.835938 237.429688 148.484375 237.304688 148.113281 237.238281 C 147.753906 237.15625 147.390625 237.089844 147.046875 236.996094 C 146.355469 236.816406 145.679688 236.660156 145.070312 236.476562 C 144.4375 236.328125 143.875 236.136719 143.347656 236 C 142.824219 235.847656 142.363281 235.710938 141.992188 235.59375 C 141.207031 235.359375 140.757812 235.222656 140.757812 235.222656 C 140.757812 235.222656 140.800781 235.339844 140.910156 235.53125 C 141.023438 235.730469 141.183594 236.019531 141.425781 236.359375 C 141.660156 236.707031 141.976562 237.09375 142.359375 237.535156 C 142.753906 237.945312 143.207031 238.433594 143.757812 238.878906 C 144.03125 239.109375 144.3125 239.355469 144.625 239.578125 C 144.9375 239.808594 145.273438 240.023438 145.613281 240.253906 C 145.949219 240.5 146.332031 240.671875 146.707031 240.882812 C 147.09375 241.085938 147.480469 241.300781 147.902344 241.476562 C 148.316406 241.648438 148.742188 241.808594 149.183594 241.976562 C 149.617188 242.15625 150.074219 242.265625 150.539062 242.382812 C 151.003906 242.496094 151.464844 242.632812 151.941406 242.71875 C 152.425781 242.78125 152.90625 242.839844 153.390625 242.902344 C 154.363281 243.03125 155.339844 242.976562 156.296875 242.953125 C 156.773438 242.957031 157.246094 242.871094 157.710938 242.792969 C 158.171875 242.71875 158.625 242.644531 159.070312 242.550781 C 159.515625 242.476562 159.941406 242.335938 160.351562 242.191406 C 160.765625 242.050781 161.167969 241.921875 161.550781 241.773438 C 162.332031 241.519531 163 241.085938 163.625 240.753906 C 164.238281 240.382812 164.804688 240.089844 165.246094 239.691406 C 165.691406 239.324219 166.074219 238.992188 166.371094 238.707031 C 166.972656 238.140625 167.28125 237.773438 167.28125 237.773438 Z M 234.132812 235.59375 C 233.753906 235.703125 233.296875 235.839844 232.769531 235.996094 C 232.246094 236.136719 231.683594 236.320312 231.050781 236.476562 C 230.4375 236.660156 229.765625 236.808594 229.070312 236.988281 C 228.730469 237.089844 228.367188 237.15625 228.007812 237.238281 C 227.636719 237.296875 227.28125 237.421875 226.90625 237.484375 C 226.152344 237.601562 225.394531 237.792969 224.617188 237.878906 C 224.226562 237.941406 223.835938 238.003906 223.445312 238.066406 C 223.058594 238.101562 222.660156 238.132812 222.265625 238.167969 C 221.480469 238.3125 220.6875 238.257812 219.90625 238.34375 C 219.128906 238.398438 218.355469 238.332031 217.59375 238.367188 C 217.210938 238.40625 216.84375 238.335938 216.472656 238.332031 C 216.101562 238.3125 215.742188 238.289062 215.386719 238.28125 C 215.027344 238.289062 214.671875 238.273438 214.339844 238.226562 C 214 238.195312 213.664062 238.164062 213.347656 238.132812 C 213.023438 238.109375 212.710938 238.089844 212.414062 238.070312 C 212.265625 238.058594 212.113281 238.058594 211.96875 238.046875 C 211.832031 238.027344 211.699219 238.007812 211.5625 237.992188 C 211.03125 237.917969 210.554688 237.867188 210.152344 237.835938 C 209.339844 237.773438 208.839844 237.773438 208.839844 237.773438 C 208.839844 237.773438 209.148438 238.132812 209.75 238.703125 C 210.050781 238.984375 210.429688 239.320312 210.875 239.691406 C 211.3125 240.085938 211.882812 240.375 212.496094 240.746094 C 213.121094 241.085938 213.789062 241.519531 214.570312 241.765625 C 214.953125 241.914062 215.355469 242.042969 215.769531 242.1875 C 216.183594 242.328125 216.605469 242.476562 217.050781 242.550781 C 217.496094 242.644531 217.953125 242.710938 218.410156 242.792969 C 218.875 242.871094 219.34375 242.957031 219.828125 242.945312 C 220.78125 242.976562 221.765625 243.03125 222.730469 242.898438 C 223.210938 242.835938 223.695312 242.773438 224.175781 242.710938 C 224.652344 242.632812 225.117188 242.488281 225.582031 242.382812 C 226.046875 242.265625 226.503906 242.15625 226.9375 241.96875 C 227.375 241.808594 227.808594 241.648438 228.222656 241.46875 C 228.636719 241.304688 229.027344 241.085938 229.410156 240.882812 C 229.789062 240.671875 230.171875 240.5 230.507812 240.253906 C 230.847656 240.023438 231.179688 239.808594 231.496094 239.578125 C 231.804688 239.355469 232.089844 239.109375 232.363281 238.878906 C 232.914062 238.433594 233.363281 237.949219 233.761719 237.535156 C 234.144531 237.09375 234.460938 236.707031 234.695312 236.359375 C 234.9375 236.019531 235.097656 235.722656 235.207031 235.53125 C 235.320312 235.332031 235.363281 235.222656 235.363281 235.222656 C 235.363281 235.222656 234.917969 235.359375 234.132812 235.59375 Z M 234.132812 235.59375 "
       id="path1893" />
    <path
       style=" stroke:none;fill-rule:nonzero;fill:rgb(32.939148%,32.939148%,32.939148%);fill-opacity:1;"
       d="M 244.171875 76.167969 C 245.792969 88.878906 243.226562 105.40625 234.261719 118.855469 C 227.484375 129.023438 214.386719 141.140625 190.492188 141.140625 C 166.597656 141.140625 153.503906 129.023438 146.726562 118.855469 C 137.761719 105.40625 135.195312 88.878906 136.816406 76.167969 C 131.53125 84.113281 128.699219 93.15625 128.699219 102.410156 C 128.699219 131.625 156.417969 155.398438 190.492188 155.398438 C 224.566406 155.398438 252.289062 131.625 252.289062 102.410156 C 252.289062 93.15625 249.453125 84.109375 244.171875 76.167969 Z M 246.46875 99.363281 C 246.417969 99.898438 246.363281 100.460938 246.308594 101.0625 C 246.058594 103.449219 245.636719 106.359375 244.722656 109.601562 C 243.835938 112.847656 242.53125 116.449219 240.617188 120.152344 C 238.710938 123.855469 236.183594 127.640625 233.023438 131.246094 C 231.421875 133.027344 229.710938 134.808594 227.792969 136.449219 C 226.867188 137.308594 225.84375 138.070312 224.835938 138.875 C 223.785156 139.617188 222.757812 140.417969 221.640625 141.105469 C 219.457031 142.566406 217.105469 143.84375 214.664062 145.003906 C 212.234375 146.195312 209.648438 147.125 207.007812 147.9375 C 204.367188 148.75 201.632812 149.308594 198.871094 149.746094 L 196.792969 150.015625 C 196.097656 150.109375 195.382812 150.136719 194.675781 150.199219 C 193.222656 150.34375 191.945312 150.328125 190.492188 150.378906 C 187.6875 150.332031 184.882812 150.15625 182.117188 149.742188 C 179.355469 149.304688 176.621094 148.75 173.980469 147.933594 C 171.339844 147.121094 168.757812 146.1875 166.324219 145.003906 C 163.882812 143.839844 161.53125 142.5625 159.347656 141.105469 C 158.230469 140.414062 157.203125 139.617188 156.152344 138.875 C 155.144531 138.066406 154.125 137.304688 153.195312 136.449219 C 151.28125 134.808594 149.570312 133.023438 147.964844 131.246094 C 144.804688 127.640625 142.277344 123.851562 140.375 120.148438 C 138.457031 116.449219 137.152344 112.847656 136.265625 109.601562 C 135.351562 106.359375 134.933594 103.449219 134.679688 101.0625 C 134.625 100.460938 134.570312 99.898438 134.519531 99.363281 C 134.484375 98.828125 134.476562 98.324219 134.457031 97.859375 C 134.417969 96.925781 134.394531 96.136719 134.417969 95.496094 C 134.4375 94.214844 134.445312 93.53125 134.445312 93.53125 C 134.445312 93.53125 134.492188 94.214844 134.578125 95.492188 C 134.605469 96.132812 134.695312 96.917969 134.808594 97.835938 C 134.867188 98.296875 134.914062 98.789062 134.992188 99.316406 C 135.074219 99.839844 135.167969 100.394531 135.261719 100.980469 C 135.667969 103.324219 136.289062 106.148438 137.347656 109.277344 C 138.398438 112.402344 139.867188 115.828125 141.863281 119.339844 C 143.871094 122.839844 146.472656 126.378906 149.601562 129.761719 C 151.199219 131.421875 152.890625 133.078125 154.773438 134.589844 C 155.6875 135.382812 156.691406 136.078125 157.660156 136.835938 C 158.683594 137.527344 159.675781 138.273438 160.757812 138.910156 C 164.988281 141.59375 169.761719 143.699219 174.792969 145.1875 C 177.304688 145.949219 179.910156 146.457031 182.53125 146.859375 C 185.160156 147.234375 187.828125 147.382812 190.492188 147.410156 C 191.773438 147.363281 193.238281 147.386719 194.507812 147.261719 C 195.164062 147.203125 195.8125 147.1875 196.472656 147.097656 L 198.453125 146.859375 C 201.074219 146.457031 203.675781 145.945312 206.191406 145.1875 C 211.21875 143.695312 215.992188 141.589844 220.226562 138.90625 C 221.304688 138.269531 222.300781 137.523438 223.320312 136.835938 C 224.289062 136.078125 225.292969 135.375 226.207031 134.589844 C 228.089844 133.078125 229.785156 131.417969 231.378906 129.757812 C 234.507812 126.378906 237.105469 122.839844 239.117188 119.335938 C 241.113281 115.824219 242.582031 112.398438 243.632812 109.273438 C 244.691406 106.148438 245.3125 103.324219 245.71875 100.980469 C 245.816406 100.394531 245.90625 99.839844 245.992188 99.316406 C 246.070312 98.789062 246.117188 98.292969 246.175781 97.835938 C 246.289062 96.914062 246.378906 96.128906 246.40625 95.492188 C 246.492188 94.210938 246.539062 93.53125 246.539062 93.53125 C 246.539062 93.53125 246.550781 94.214844 246.570312 95.496094 C 246.59375 96.140625 246.570312 96.929688 246.53125 97.863281 C 246.511719 98.328125 246.503906 98.828125 246.46875 99.363281 Z M 246.46875 99.363281 "
       id="path1895" />
    <path
       style=" stroke:none;fill-rule:nonzero;fill:rgb(14.118958%,9.799194%,9.799194%);fill-opacity:1;"
       d="M 124.726562 224.566406 C 127.625 224.566406 130.363281 224.953125 132.867188 225.722656 L 133.730469 225.988281 L 133.664062 225.085938 C 133.222656 219.105469 132.933594 213.992188 132.816406 211.847656 L 134.789062 211.753906 L 132.730469 210.699219 C 131.234375 209.933594 130.027344 209.132812 129.144531 208.316406 L 128.703125 207.90625 L 119.921875 216.945312 L 117.191406 225.367188 L 118.210938 225.179688 C 120.421875 224.769531 122.613281 224.566406 124.726562 224.566406 Z M 124.726562 224.566406 "
       id="path1897" />
    <path
       style=" stroke:none;fill-rule:nonzero;fill:rgb(14.118958%,9.799194%,9.799194%);fill-opacity:1;"
       d="M 251.558594 224.5625 C 253.617188 224.5625 255.75 224.757812 257.90625 225.144531 L 258.921875 225.328125 L 256.203125 216.941406 L 247.449219 207.929688 L 247.007812 208.320312 C 246.101562 209.121094 244.835938 209.917969 243.25 210.683594 L 243.363281 211.230469 L 243.339844 211.230469 C 243.285156 212.324219 242.976562 218.132812 242.460938 225.136719 L 242.390625 226.046875 L 243.261719 225.773438 C 245.808594 224.96875 248.597656 224.5625 251.558594 224.5625 Z M 251.558594 224.5625 "
       id="path1899" />
    <path
       style=" stroke:none;fill-rule:nonzero;fill:rgb(14.118958%,9.799194%,9.799194%);fill-opacity:1;"
       d="M 126.324219 246.773438 C 127.167969 246.773438 128.003906 246.796875 128.808594 246.835938 C 131.085938 246.953125 133.21875 247.234375 135.144531 247.671875 L 136.027344 247.871094 L 135.890625 246.976562 C 135.261719 242.84375 134.648438 237.226562 134.070312 230.277344 L 134.039062 229.902344 L 133.691406 229.757812 C 131.0625 228.65625 128.058594 228.09375 124.765625 228.09375 C 121.320312 228.09375 118.230469 228.710938 116.242188 229.226562 L 115.914062 229.3125 L 109.550781 248.957031 L 110.617188 248.710938 C 114.433594 247.828125 120.257812 246.773438 126.324219 246.773438 Z M 126.324219 246.773438 "
       id="path1901" />
    <path
       style=" stroke:none;fill-rule:nonzero;fill:rgb(14.118958%,9.799194%,9.799194%);fill-opacity:1;"
       d="M 249.96875 246.773438 C 250.667969 246.773438 251.367188 246.789062 252.054688 246.8125 C 257.347656 247.015625 262.285156 247.933594 265.5 248.667969 L 266.5625 248.910156 L 260.195312 229.265625 L 259.867188 229.179688 C 257.917969 228.683594 254.890625 228.09375 251.523438 228.09375 C 248.15625 228.09375 245.09375 228.679688 242.421875 229.832031 L 242.082031 229.976562 L 242.050781 230.347656 C 241.472656 237.289062 240.859375 242.894531 240.230469 247.015625 L 240.089844 247.921875 L 240.980469 247.710938 C 243.652344 247.089844 246.675781 246.773438 249.96875 246.773438 Z M 249.96875 246.773438 "
       id="path1903" />
    <path
       style=" stroke:none;fill-rule:nonzero;fill:rgb(14.118958%,9.799194%,9.799194%);fill-opacity:1;"
       d="M 267.851562 252.890625 L 267.527344 252.804688 C 264.710938 252.046875 257.363281 250.292969 249.878906 250.292969 C 249.296875 250.292969 248.710938 250.300781 248.128906 250.324219 C 244.933594 250.449219 242.078125 250.921875 239.644531 251.738281 L 239.324219 251.84375 L 239.242188 252.171875 C 239.082031 252.800781 238.921875 253.335938 238.765625 253.753906 C 238.003906 255.820312 236.144531 259.964844 233.921875 264.570312 L 233.382812 265.6875 L 234.597656 265.445312 C 235.832031 265.203125 237.175781 264.972656 238.59375 264.757812 C 245.019531 263.785156 252.863281 263.230469 260.121094 263.230469 C 263.902344 263.230469 267.46875 263.378906 270.429688 263.667969 L 271.371094 263.761719 Z M 267.851562 252.890625 "
       id="path1905" />
    <path
       style=" stroke:none;fill-rule:nonzero;fill:rgb(14.118958%,9.799194%,9.799194%);fill-opacity:1;"
       d="M 137.359375 253.757812 C 137.195312 253.3125 137.03125 252.761719 136.867188 252.109375 L 136.785156 251.78125 L 136.460938 251.671875 C 135.277344 251.289062 133.988281 250.980469 132.621094 250.757812 C 130.71875 250.445312 128.621094 250.285156 126.386719 250.285156 C 118.808594 250.285156 111.414062 252.078125 108.585938 252.851562 L 108.261719 252.9375 L 104.757812 263.753906 L 105.703125 263.660156 C 108.746094 263.351562 112.222656 263.191406 116.039062 263.191406 C 123.800781 263.191406 132.167969 263.847656 139 264.992188 C 139.867188 265.136719 140.714844 265.289062 141.53125 265.453125 L 142.746094 265.691406 L 142.207031 264.578125 C 139.984375 259.972656 138.125 255.828125 137.359375 253.757812 Z M 137.359375 253.757812 "
       id="path1907" />
    <path
       style=" stroke:none;fill-rule:nonzero;fill:rgb(14.118958%,9.799194%,9.799194%);fill-opacity:1;"
       d="M 187.199219 191.289062 C 185.433594 191.289062 183.992188 192.726562 183.992188 194.496094 C 183.992188 196.261719 185.433594 197.699219 187.199219 197.699219 C 188.96875 197.699219 190.410156 196.261719 190.410156 194.496094 C 190.410156 193.640625 190.078125 192.835938 189.46875 192.230469 C 188.863281 191.625 188.058594 191.289062 187.199219 191.289062 Z M 187.199219 191.289062 "
       id="path1909" />
    <use
       xlink:href="#surface5"
       transform="matrix(1,0,0,1,78,172)"
       mask="url(#mask0)"
       id="use1911" />
    <use
       xlink:href="#surface8"
       transform="matrix(1,0,0,1,140,143)"
       mask="url(#mask1)"
       id="use1913" />
    <path
       style=" stroke:none;fill-rule:nonzero;fill:rgb(0%,0%,0%);fill-opacity:1;"
       d="M 308.441406 261.570312 C 307.472656 240.855469 286.515625 211.429688 279.910156 203.105469 L 293.566406 187.730469 L 264.082031 148.378906 L 258.613281 150.183594 C 254.921875 151.402344 251.363281 153.105469 248 155.261719 C 246.933594 151.675781 245.5625 148.238281 243.910156 144.992188 C 256.023438 133.324219 262.667969 118.277344 262.667969 102.410156 C 262.667969 87.101562 256.378906 72.328125 244.960938 60.816406 L 244.898438 60.75 L 221.378906 40.125 L 231.84375 69.390625 L 231.894531 69.523438 C 236.214844 79.84375 235.050781 98.96875 225.621094 113.109375 C 223.703125 115.984375 221.484375 118.558594 219.007812 120.777344 C 209.960938 116.484375 199.269531 114.308594 187.203125 114.308594 C 177.0625 114.308594 167.917969 115.839844 159.992188 118.859375 C 158.296875 117.109375 156.746094 115.179688 155.367188 113.109375 C 144.542969 96.875 146.871094 78.59375 149.21875 69.140625 C 152.464844 56.09375 155 51.882812 155.011719 51.859375 L 159.628906 44.648438 L 151.742188 48 C 151.449219 48.125 144.414062 51.1875 135.910156 60.941406 C 127.40625 70.695312 118.320312 86.710938 118.320312 102.410156 C 118.320312 116.425781 123.671875 130.117188 133.433594 141.179688 C 130.960938 145.425781 129.042969 150.054688 127.707031 154.996094 C 124.464844 152.964844 121.050781 151.351562 117.515625 150.1875 L 112.046875 148.378906 L 82.5625 187.734375 L 96.1875 203.078125 C 85.199219 216.335938 69.128906 244.695312 67.691406 261.46875 C 65.757812 284.050781 90.5 295.46875 91.558594 295.945312 L 99.707031 299.609375 L 108.253906 273.21875 C 110.566406 273.042969 113.199219 272.949219 115.96875 272.949219 C 124.699219 272.949219 133.964844 273.804688 140.539062 275.199219 C 141.824219 277.683594 143.105469 280.085938 144.355469 282.347656 C 145.714844 284.816406 147.042969 287.125 148.304688 289.226562 L 132.683594 315.351562 L 138.496094 319.660156 C 139.5 320.402344 163.375 337.878906 187.203125 337.878906 C 210.882812 337.878906 236.332031 320.558594 237.402344 319.820312 L 243.578125 315.570312 L 227.824219 289.226562 C 229.082031 287.128906 230.40625 284.824219 231.773438 282.347656 C 233.027344 280.074219 234.308594 277.671875 235.585938 275.195312 C 242.089844 273.820312 251.355469 272.980469 260.171875 272.980469 C 262.964844 272.980469 265.59375 273.070312 267.878906 273.238281 L 276.421875 299.605469 L 284.621094 295.917969 C 288.78125 294.070312 309.480469 283.726562 308.441406 261.570312 Z M 281.382812 223.21875 C 280.5 224.910156 279.15625 227.234375 277.417969 229.53125 C 274.808594 232.980469 271.3125 236.339844 267.164062 237.34375 L 260.988281 218.28125 L 260.4375 216.574219 L 269.234375 206.664062 C 272.523438 210.054688 276.96875 216.113281 281.382812 223.21875 Z M 227.308594 211.289062 C 215.628906 213.777344 201.382812 215.144531 187.199219 215.144531 C 173.019531 215.144531 159.015625 213.765625 147.769531 211.253906 C 135.21875 208.453125 131.65625 205.484375 131.40625 204.691406 C 131.265625 203.703125 132.226562 202.007812 133.847656 199.992188 C 138.492188 203.347656 151.894531 210.207031 183.898438 210.207031 C 218.214844 210.207031 236.488281 202.484375 242 199.671875 C 243.789062 201.824219 244.871094 203.632812 244.730469 204.636719 C 244.421875 205.464844 240.550781 208.46875 227.308594 211.289062 Z M 228.890625 217.523438 C 228.890625 217.523438 215.4375 238.210938 205.699219 224.261719 Z M 171.808594 224.261719 C 162.070312 238.210938 148.617188 217.523438 148.617188 217.523438 Z M 133.046875 225.132812 C 127.605469 223.460938 122.105469 223.832031 118.101562 224.570312 L 120.464844 217.269531 L 128.726562 208.769531 C 129.65625 209.628906 130.894531 210.453125 132.449219 211.25 L 132.167969 211.261719 C 132.195312 211.847656 132.503906 217.785156 133.046875 225.132812 Z M 133.453125 230.328125 C 133.941406 236.183594 134.554688 242.324219 135.28125 247.070312 C 133.191406 246.59375 131.015625 246.332031 128.84375 246.21875 C 121.839844 245.863281 114.816406 247.105469 110.476562 248.109375 L 115.277344 233.292969 L 116.398438 229.824219 C 120.097656 228.863281 127.152344 227.683594 133.453125 230.328125 Z M 187.199219 186.085938 C 205.964844 186.085938 227.433594 189.015625 231.292969 189.566406 C 233.828125 191.539062 236.40625 193.8125 238.617188 196.015625 C 232.339844 198.917969 214.78125 205.457031 183.902344 205.457031 C 153.742188 205.457031 141.1875 199.238281 137.0625 196.441406 C 139.355469 194.125 142.101562 191.691406 144.839844 189.558594 C 148.507812 188.996094 168.5 186.085938 187.199219 186.085938 Z M 135.976562 169.621094 C 136.035156 166.917969 136.582031 158.113281 141.015625 149.046875 C 141.882812 147.277344 142.898438 145.496094 144.085938 143.75 C 147.527344 146.660156 151.328125 149.25 155.429688 151.460938 C 154.875 153.597656 154.398438 155.738281 153.988281 157.847656 C 151.835938 168.976562 151.542969 179.285156 151.535156 183.839844 C 148.878906 184.175781 146.761719 184.46875 145.371094 184.671875 C 144.085938 181.714844 141.089844 175.640625 135.976562 169.621094 Z M 156.304688 183.273438 C 156.355469 178.851562 156.699219 169.769531 158.46875 159.96875 C 158.847656 157.878906 159.292969 155.753906 159.808594 153.632812 C 167.410156 157.074219 175.867188 159.277344 184.824219 159.9375 L 184.824219 181.351562 C 174.542969 181.476562 164.117188 182.394531 156.304688 183.273438 Z M 189.578125 181.351562 L 189.578125 160.136719 C 189.882812 160.140625 190.1875 160.148438 190.492188 160.148438 C 199.804688 160.148438 208.675781 158.476562 216.734375 155.464844 C 217.085938 157.042969 217.398438 158.613281 217.679688 160.167969 C 219.429688 169.957031 219.765625 178.996094 219.8125 183.355469 C 211.5 182.453125 200.261719 181.480469 189.578125 181.351562 Z M 221.226562 153.609375 C 225.445312 151.695312 229.402344 149.402344 233.03125 146.777344 C 233.164062 147 233.300781 147.214844 233.433594 147.441406 C 234.371094 149.0625 235.175781 150.6875 235.871094 152.285156 C 239.28125 160.109375 239.976562 167.226562 240.117188 169.660156 C 235.015625 175.679688 232.027344 181.746094 230.75 184.691406 C 229.359375 184.5 227.238281 184.222656 224.585938 183.902344 C 224.582031 179.476562 224.308594 169.484375 222.273438 158.59375 C 221.964844 156.949219 221.617188 155.28125 221.226562 153.609375 Z M 243.519531 211.242188 C 245.316406 210.371094 246.558594 209.542969 247.417969 208.785156 L 255.660156 217.269531 L 258.015625 224.539062 C 253.984375 223.816406 248.492188 223.480469 243.078125 225.183594 C 243.621094 217.8125 243.929688 211.847656 243.960938 211.261719 Z M 242.667969 230.398438 C 248.910156 227.703125 255.933594 228.816406 259.710938 229.78125 L 262.105469 237.164062 L 265.636719 248.066406 C 262.261719 247.292969 257.339844 246.398438 252.078125 246.195312 C 248.359375 246.054688 244.472656 246.261719 240.839844 247.113281 C 241.5625 242.378906 242.179688 236.25 242.667969 230.398438 Z M 280.183594 187.175781 L 257.675781 212.519531 L 253.691406 208.417969 C 259.265625 195.429688 271.097656 186.042969 276.503906 182.261719 Z M 273.644531 178.441406 C 271.949219 179.621094 269.730469 181.277344 267.273438 183.367188 C 261.53125 188.257812 254.535156 195.542969 250.128906 204.753906 L 249.449219 204.050781 C 249.167969 201.300781 247.011719 198.085938 244.332031 195.074219 C 245.398438 192.296875 246.816406 189.707031 248.449219 187.3125 C 254.3125 178.691406 262.875 172.640625 267.25 169.910156 Z M 260.273438 160.601562 L 264.378906 166.078125 C 261.683594 167.769531 257.753906 170.480469 253.71875 174.144531 C 248.859375 178.5625 243.867188 184.355469 240.722656 191.375 C 238.679688 189.445312 236.664062 187.757812 235.144531 186.546875 C 235.402344 185.964844 235.742188 185.238281 236.15625 184.402344 C 239.269531 178.164062 246.898438 165.753906 260.273438 160.601562 Z M 215.203125 130.371094 C 214.304688 130.882812 213.367188 131.367188 212.394531 131.828125 C 211.488281 130.480469 210.511719 129.203125 209.46875 128.007812 C 211.46875 128.691406 213.386719 129.480469 215.203125 130.371094 Z M 189.578125 124.710938 C 192.808594 124.796875 195.898438 125.050781 198.835938 125.480469 C 202.433594 127.347656 205.414062 130.191406 207.886719 133.652344 C 202.941406 135.351562 197.1875 136.390625 190.492188 136.390625 C 190.183594 136.390625 189.882812 136.378906 189.578125 136.375 Z M 177.6875 125.269531 L 177.664062 125.222656 C 179.964844 124.953125 182.351562 124.785156 184.824219 124.71875 L 184.824219 136.128906 C 178.855469 135.570312 173.734375 134.136719 169.351562 132.167969 C 171.6875 129.257812 174.441406 126.867188 177.6875 125.269531 Z M 167.261719 127.328125 C 166.492188 128.160156 165.761719 129.042969 165.0625 129.957031 C 164.40625 129.570312 163.769531 129.171875 163.152344 128.761719 C 164.480469 128.234375 165.84375 127.75 167.261719 127.328125 Z M 128.699219 102.40625 C 128.699219 93.15625 131.53125 84.109375 136.816406 76.164062 C 135.195312 88.878906 137.761719 105.40625 146.726562 118.855469 C 153.503906 129.023438 166.597656 141.140625 190.492188 141.140625 C 214.386719 141.140625 227.484375 129.023438 234.261719 118.855469 C 243.226562 105.40625 245.792969 88.878906 244.171875 76.164062 C 249.453125 84.109375 252.289062 93.15625 252.289062 102.40625 C 252.289062 131.625 224.566406 155.398438 190.492188 155.398438 C 156.417969 155.398438 128.699219 131.625 128.699219 102.40625 Z M 115.855469 160.601562 C 126.804688 164.820312 133.902344 173.90625 137.824219 180.484375 C 139.335938 183.019531 140.378906 185.179688 140.984375 186.546875 C 139.734375 187.542969 138.148438 188.859375 136.488281 190.371094 C 133.113281 183.347656 127.917969 177.609375 123 173.300781 C 118.742188 169.574219 114.703125 166.917969 112.234375 165.429688 Z M 109.363281 169.261719 C 112.546875 171.160156 119.535156 175.738281 125.476562 182.488281 C 126.289062 183.414062 127.085938 184.375 127.847656 185.382812 C 129.058594 186.984375 130.1875 188.691406 131.1875 190.488281 C 131.800781 191.589844 132.363281 192.730469 132.863281 193.902344 C 129.960938 196.96875 127.441406 200.339844 126.804688 203.28125 C 123.472656 196.867188 118.933594 191.445312 114.570312 187.179688 C 109.960938 182.675781 105.558594 179.460938 103.007812 177.746094 Z M 95.941406 187.175781 L 100.148438 181.5625 C 101.871094 182.722656 104.679688 184.742188 107.847656 187.492188 C 113.222656 192.164062 119.621094 198.960938 123.496094 207.328125 L 118.558594 212.410156 L 118.453125 212.519531 L 118.429688 212.496094 L 97.972656 189.460938 Z M 106.890625 206.664062 L 113.484375 214.089844 L 115.691406 216.574219 L 112.640625 225.988281 C 112.328125 226.097656 112.128906 226.175781 112.070312 226.199219 L 112.347656 226.898438 L 109.101562 236.914062 C 104.21875 235.0625 100.355469 230.082031 97.925781 226.121094 C 96.859375 224.378906 96.070312 222.84375 95.597656 221.855469 C 99.726562 215.339844 103.816406 209.832031 106.890625 206.664062 Z M 93.449219 285.234375 C 89.628906 283.027344 82.242188 277.964844 79.261719 270.480469 C 78.285156 268.027344 77.78125 265.3125 78.035156 262.351562 C 78.363281 258.53125 79.695312 253.832031 81.65625 248.769531 C 83.792969 254.113281 87.488281 261.675781 92.644531 266.300781 C 94.410156 267.882812 96.34375 269.113281 98.449219 269.796875 Z M 87.785156 250.863281 C 86.265625 247.65625 85.105469 244.574219 84.386719 242.34375 C 86.808594 237.070312 89.699219 231.648438 92.691406 226.597656 C 94.464844 229.796875 97.375 234.246094 101.304688 237.609375 C 103.1875 239.222656 105.304688 240.578125 107.636719 241.433594 L 99.910156 265.285156 C 94.992188 263.683594 90.722656 257.066406 87.785156 250.863281 Z M 139.101562 264.382812 C 128.765625 262.652344 115.199219 262.074219 105.636719 263.042969 L 108.746094 253.449219 C 112.277344 252.484375 123.253906 249.847656 132.519531 251.367188 C 133.808594 251.578125 135.066406 251.871094 136.269531 252.261719 C 136.433594 252.921875 136.605469 253.5 136.78125 253.972656 C 137.5 255.921875 139.28125 259.941406 141.648438 264.84375 C 140.824219 264.683594 139.976562 264.527344 139.101562 264.382812 Z M 229.648438 312.492188 C 223.660156 316.261719 204.347656 327.507812 187.203125 327.507812 C 170.148438 327.507812 152.058594 316.328125 146.445312 312.554688 L 157.808594 293.554688 C 163.058594 300.910156 165.375 301.210938 166.570312 301.359375 C 170.738281 301.875 174.300781 301.296875 178.074219 300.683594 C 180.898438 300.222656 183.816406 299.75 187.125 299.75 C 190.398438 299.75 193.671875 300.214844 196.839844 300.664062 C 200.039062 301.121094 203.109375 301.558594 206.164062 301.558594 C 207.292969 301.558594 208.425781 301.5 209.558594 301.359375 C 210.75 301.210938 213.066406 300.910156 218.320312 293.554688 Z M 228.433594 266.347656 C 228.339844 266.378906 228.242188 266.40625 228.148438 266.4375 L 228.246094 266.730469 C 226.570312 270.082031 224.714844 273.648438 222.832031 277.070312 C 212.585938 295.6875 209.097656 296.613281 208.96875 296.640625 C 205.402344 297.085938 201.570312 296.539062 197.511719 295.960938 C 194.179688 295.488281 190.734375 294.996094 187.125 294.996094 C 183.429688 294.996094 180.320312 295.503906 177.308594 295.992188 C 173.734375 296.574219 170.644531 297.074219 167.167969 296.644531 C 167.027344 296.613281 163.535156 295.6875 153.292969 277.070312 C 149.234375 269.691406 145.308594 261.652344 143.003906 256.507812 C 142.199219 254.710938 141.589844 253.261719 141.242188 252.324219 C 139.273438 247 137.640625 224.011719 137.03125 213.183594 C 138.765625 213.796875 140.714844 214.386719 142.875 214.953125 L 143.511719 226.699219 C 143.511719 226.699219 154.113281 234.945312 160.570312 235.21875 C 166.445312 235.464844 177.683594 227.757812 180.792969 219.804688 C 182.917969 219.863281 185.054688 219.898438 187.199219 219.898438 C 189.890625 219.898438 192.601562 219.847656 195.308594 219.746094 C 198.390625 227.722656 209.667969 235.464844 215.550781 235.21875 C 222.011719 234.945312 232.609375 226.699219 232.609375 226.699219 L 233.257812 214.769531 C 235.503906 214.191406 237.441406 213.609375 239.097656 213.035156 C 238.5 223.800781 236.859375 246.976562 234.882812 252.324219 C 234.535156 253.261719 233.925781 254.707031 233.121094 256.507812 C 231.925781 259.175781 230.292969 262.617188 228.433594 266.347656 Z M 238.5 264.144531 C 237.109375 264.355469 235.765625 264.585938 234.480469 264.839844 C 236.847656 259.9375 238.625 255.921875 239.347656 253.96875 C 239.515625 253.511719 239.679688 252.957031 239.84375 252.324219 C 242.417969 251.460938 245.269531 251.054688 248.152344 250.941406 C 256.082031 250.636719 264.230469 252.558594 267.363281 253.398438 L 270.492188 263.054688 C 261.800781 262.207031 248.914062 262.570312 238.5 264.144531 Z M 276.316406 265.597656 L 268.632812 241.875 C 270.390625 241.40625 272.035156 240.644531 273.558594 239.6875 C 278.347656 236.675781 281.949219 231.738281 284.214844 227.925781 C 287.296875 233.226562 290.234375 238.875 292.617188 244.296875 C 291.644531 246.996094 290.226562 250.394531 288.46875 253.679688 C 285.328125 259.550781 281.085938 265.050781 276.316406 265.597656 Z M 295.65625 272.988281 C 292.214844 279.101562 286.050781 283.28125 282.675781 285.230469 L 277.796875 270.171875 C 279.960938 269.746094 281.960938 268.730469 283.792969 267.324219 C 288.96875 263.351562 292.796875 256.289062 295.199219 250.71875 C 296.757812 255.035156 297.804688 259.027344 298.089844 262.351562 C 298.433594 266.363281 297.386719 269.917969 295.65625 272.988281 Z M 172.1875 240.132812 C 175.042969 237.542969 177.742188 235.097656 177.742188 231.25 L 182.5 231.25 C 182.5 231.351562 182.488281 231.453125 182.484375 231.554688 C 182.351562 237.324219 178.496094 240.828125 175.382812 243.648438 C 172.671875 246.105469 171.15625 247.585938 171.546875 249.398438 C 171.808594 250.605469 172.332031 251.441406 173.144531 251.960938 C 174.664062 252.929688 176.996094 252.691406 177.765625 252.515625 L 179.8125 252.050781 L 181.785156 257.453125 L 194.34375 257.453125 L 196.3125 252.027344 L 198.375 252.519531 C 199.132812 252.691406 201.464844 252.929688 202.984375 251.960938 C 203.796875 251.441406 204.320312 250.605469 204.582031 249.398438 C 204.972656 247.585938 203.457031 246.109375 200.746094 243.648438 C 197.632812 240.828125 193.777344 237.324219 193.644531 231.554688 C 193.640625 231.453125 193.628906 231.351562 193.628906 231.25 L 198.386719 231.25 C 198.386719 235.097656 201.085938 237.542969 203.941406 240.132812 C 206.734375 242.664062 209.875 245.519531 209.34375 249.71875 C 209.3125 249.941406 209.28125 250.167969 209.234375 250.398438 C 208.703125 252.855469 207.414062 254.789062 205.503906 255.992188 C 203.433594 257.292969 201.082031 257.488281 199.417969 257.417969 L 197.675781 262.203125 L 178.453125 262.203125 L 176.710938 257.417969 C 175.046875 257.492188 172.695312 257.296875 170.621094 255.992188 C 168.714844 254.789062 167.425781 252.855469 166.894531 250.398438 C 166.84375 250.164062 166.8125 249.941406 166.785156 249.714844 C 166.253906 245.515625 169.394531 242.664062 172.1875 240.132812 Z M 206.699219 280.207031 C 200.277344 282.273438 192.816406 280.335938 187.140625 280.335938 C 181.460938 280.335938 175.847656 282.273438 169.425781 280.207031 C 160.980469 277.484375 156.421875 267.976562 165.921875 265.375 C 175.578125 262.730469 177.667969 267.976562 187.136719 267.976562 C 196.609375 267.976562 200.546875 262.730469 210.203125 265.375 C 219.703125 267.976562 215.148438 277.484375 206.699219 280.207031 Z M 187.199219 201.832031 C 191.253906 201.832031 194.546875 198.539062 194.546875 194.496094 C 194.546875 190.449219 191.253906 187.15625 187.199219 187.15625 C 183.148438 187.15625 179.851562 190.449219 179.851562 194.496094 C 179.855469 198.539062 183.148438 201.832031 187.199219 201.832031 Z M 187.199219 191.90625 C 188.628906 191.90625 189.789062 193.070312 189.789062 194.496094 C 189.789062 195.921875 188.628906 197.082031 187.199219 197.082031 C 185.773438 197.082031 184.609375 195.921875 184.609375 194.496094 C 184.609375 193.070312 185.773438 191.90625 187.199219 191.90625 Z M 200.25 291.390625 C 200.25 291.390625 196.570312 288.691406 190.085938 288.144531 C 183.601562 287.597656 175.871094 290.914062 175.871094 290.914062 C 175.871094 290.914062 190.085938 272.910156 200.25 291.390625 Z M 161.550781 241.769531 C 161.164062 241.917969 160.761719 242.046875 160.351562 242.191406 C 159.941406 242.332031 159.515625 242.476562 159.070312 242.550781 C 158.625 242.644531 158.171875 242.714844 157.707031 242.792969 C 157.246094 242.875 156.773438 242.957031 156.296875 242.949219 C 155.339844 242.976562 154.359375 243.035156 153.390625 242.898438 C 152.910156 242.835938 152.425781 242.777344 151.945312 242.714844 C 151.46875 242.632812 151.003906 242.492188 150.539062 242.382812 C 150.074219 242.265625 149.617188 242.15625 149.183594 241.972656 C 148.746094 241.8125 148.3125 241.648438 147.898438 241.472656 C 147.480469 241.300781 147.089844 241.085938 146.707031 240.882812 C 146.332031 240.667969 145.949219 240.496094 145.613281 240.253906 C 145.269531 240.019531 144.9375 239.804688 144.625 239.578125 C 144.3125 239.355469 144.027344 239.109375 143.753906 238.882812 C 143.203125 238.433594 142.753906 237.949219 142.359375 237.53125 C 141.976562 237.09375 141.65625 236.707031 141.421875 236.355469 C 141.183594 236.019531 141.019531 235.722656 140.910156 235.527344 C 140.800781 235.335938 140.753906 235.222656 140.753906 235.222656 C 140.753906 235.222656 141.203125 235.355469 141.988281 235.59375 C 142.367188 235.703125 142.824219 235.839844 143.347656 235.996094 C 143.875 236.132812 144.4375 236.324219 145.070312 236.476562 C 145.683594 236.660156 146.355469 236.8125 147.046875 236.992188 C 147.390625 237.085938 147.753906 237.15625 148.117188 237.234375 C 148.484375 237.300781 148.835938 237.425781 149.214844 237.480469 C 149.972656 237.597656 150.722656 237.792969 151.503906 237.882812 C 151.890625 237.941406 152.28125 238 152.671875 238.0625 C 153.066406 238.097656 153.460938 238.136719 153.855469 238.171875 C 154.640625 238.3125 155.433594 238.257812 156.214844 238.339844 C 156.996094 238.398438 157.765625 238.328125 158.527344 238.371094 C 158.910156 238.40625 159.277344 238.335938 159.648438 238.328125 C 160.015625 238.3125 160.378906 238.289062 160.738281 238.28125 C 161.097656 238.285156 161.449219 238.273438 161.78125 238.222656 C 162.125 238.191406 162.453125 238.160156 162.769531 238.128906 C 163.097656 238.109375 163.410156 238.089844 163.707031 238.070312 C 163.855469 238.058594 164.003906 238.058594 164.148438 238.042969 C 164.289062 238.023438 164.425781 238.003906 164.554688 237.988281 C 165.089844 237.917969 165.566406 237.867188 165.972656 237.835938 C 166.78125 237.777344 167.28125 237.773438 167.28125 237.773438 C 167.28125 237.773438 166.972656 238.132812 166.371094 238.703125 C 166.070312 238.988281 165.691406 239.320312 165.242188 239.691406 C 164.804688 240.085938 164.234375 240.375 163.625 240.75 C 163 241.085938 162.332031 241.519531 161.550781 241.769531 Z M 235.210938 235.53125 C 235.097656 235.726562 234.9375 236.019531 234.695312 236.355469 C 234.460938 236.707031 234.144531 237.09375 233.761719 237.535156 C 233.367188 237.949219 232.914062 238.433594 232.363281 238.882812 C 232.09375 239.113281 231.808594 239.355469 231.496094 239.582031 C 231.183594 239.804688 230.847656 240.023438 230.507812 240.253906 C 230.171875 240.5 229.789062 240.671875 229.410156 240.886719 C 229.03125 241.089844 228.640625 241.300781 228.222656 241.472656 C 227.804688 241.652344 227.375 241.8125 226.9375 241.972656 C 226.503906 242.15625 226.046875 242.265625 225.582031 242.382812 C 225.117188 242.492188 224.652344 242.632812 224.175781 242.714844 C 223.695312 242.777344 223.210938 242.839844 222.730469 242.898438 C 221.761719 243.035156 220.78125 242.976562 219.824219 242.949219 C 219.34375 242.957031 218.875 242.875 218.414062 242.792969 C 217.949219 242.714844 217.496094 242.644531 217.050781 242.550781 C 216.605469 242.476562 216.179688 242.332031 215.769531 242.191406 C 215.355469 242.046875 214.953125 241.917969 214.570312 241.769531 C 213.789062 241.519531 213.121094 241.085938 212.496094 240.75 C 211.886719 240.378906 211.316406 240.089844 210.878906 239.691406 C 210.429688 239.320312 210.050781 238.988281 209.75 238.703125 C 209.148438 238.132812 208.839844 237.777344 208.839844 237.777344 C 208.839844 237.777344 209.339844 237.777344 210.148438 237.835938 C 210.554688 237.867188 211.03125 237.917969 211.5625 237.988281 C 211.695312 238.007812 211.832031 238.027344 211.972656 238.046875 C 212.113281 238.0625 212.265625 238.0625 212.414062 238.070312 C 212.710938 238.089844 213.023438 238.109375 213.347656 238.132812 C 213.667969 238.160156 213.996094 238.195312 214.335938 238.226562 C 214.671875 238.277344 215.023438 238.285156 215.382812 238.285156 C 215.742188 238.289062 216.105469 238.316406 216.472656 238.332031 C 216.84375 238.335938 217.210938 238.40625 217.59375 238.371094 C 218.355469 238.332031 219.125 238.398438 219.90625 238.34375 C 220.6875 238.257812 221.480469 238.316406 222.265625 238.171875 C 222.660156 238.136719 223.054688 238.101562 223.449219 238.0625 C 223.839844 238.003906 224.226562 237.941406 224.617188 237.882812 C 225.398438 237.796875 226.152344 237.601562 226.90625 237.484375 C 227.285156 237.425781 227.636719 237.300781 228.003906 237.238281 C 228.367188 237.15625 228.730469 237.089844 229.074219 236.992188 C 229.765625 236.8125 230.4375 236.660156 231.050781 236.476562 C 231.683594 236.324219 232.246094 236.136719 232.769531 236 C 233.296875 235.84375 233.753906 235.707031 234.128906 235.59375 C 234.917969 235.359375 235.363281 235.222656 235.363281 235.222656 C 235.363281 235.222656 235.320312 235.335938 235.210938 235.53125 Z M 235.210938 235.53125 "
       id="path1915" />
  </g>
</svg>
